<svg width="247" height="251" viewBox="0 0 247 251" fill="none" xmlns="http://www.w3.org/2000/svg">
<g opacity="0.75">
<path opacity="0.3" d="M153.168 155.211L157.048 171.54L140.719 175.42L143.421 186.783L159.75 182.903L163.63 199.232L174.987 196.53L171.107 180.201L187.437 176.321L184.74 164.958L168.411 168.844L164.531 152.514L153.168 155.211Z" stroke="black" stroke-miterlimit="10"/>
<path opacity="0.3" d="M128.477 190.268L130.327 198.044L122.551 199.893L123.835 205.302L131.611 203.453L133.46 211.234L138.87 209.95L137.026 202.169L144.801 200.319L143.517 194.91L135.736 196.759L133.892 188.978L128.477 190.268Z" stroke="black" stroke-miterlimit="10"/>
<path opacity="0.3" d="M15.5027 114.158L17.352 121.934L9.57629 123.783L10.8607 129.198L18.6364 127.348L20.4857 135.124L25.9005 133.84L24.0511 126.064L31.8268 124.215L30.5424 118.8L22.7667 120.649L20.9174 112.874L15.5027 114.158Z" stroke="black" stroke-miterlimit="10"/>
<path opacity="0.3" d="M160.491 8.39439L162.34 16.1754L154.559 18.0247L155.844 23.4342L163.625 21.5848L165.474 29.3659L170.884 28.0761L169.034 20.3004L176.815 18.4511L175.526 13.0417L167.75 14.8857L165.9 7.10999L160.491 8.39439Z" stroke="black" stroke-miterlimit="10"/>
<path opacity="0.3" d="M27.2548 8.37869L28.5393 13.7721L23.1405 15.0565L24.0359 18.8085L29.4293 17.5294L30.7137 22.9228L34.4656 22.0328L33.1866 16.634L38.58 15.355L37.69 11.5977L32.2912 12.8821L31.0121 7.48334L27.2548 8.37869Z" stroke="black" stroke-miterlimit="10"/>
<path opacity="0.3" d="M168.474 105.738L169.753 111.136L164.36 112.415L165.25 116.173L170.649 114.888L171.933 120.287L175.685 119.392L174.401 113.998L179.799 112.714L178.909 108.962L173.511 110.241L172.226 104.842L168.474 105.738Z" stroke="black" stroke-miterlimit="10"/>
<path d="M85.1967 43.7661L87.046 51.5418L79.265 53.3911L80.5494 58.8059L88.3304 56.9565L90.1798 64.7322L95.5892 63.4478L93.7399 55.6721L101.521 53.8228L100.231 48.4081L92.4555 50.2574L90.6061 42.4817L85.1967 43.7661Z" fill="white" stroke="#263238" stroke-miterlimit="10"/>
<path d="M130.145 17.5239L126.963 35.4576L143.101 27.005L136.007 43.7822L153.616 39.1349L142.968 53.9135L161.173 53.3006L147.503 65.3346L165.389 68.7881L149.379 77.4857L166.05 84.8298L148.51 89.7435L163.124 100.616L144.929 101.506L156.76 115.352L138.827 112.17L147.279 128.308L130.502 121.214L135.149 138.828L120.371 128.18L120.984 146.38L108.944 132.71L105.491 150.595L96.7985 134.591L89.4545 151.256L84.5408 133.717L73.6686 148.336L72.7786 130.141L58.9273 141.972L62.109 124.033L45.9767 132.486L53.0702 115.709L35.4563 120.356L46.1046 105.583L27.8992 106.196L41.5692 94.1563L23.6889 90.7028L39.6933 82.0105L23.028 74.6611L40.562 69.7474L25.9486 58.8752L44.1434 57.9905L32.312 44.1393L50.2456 47.3209L41.7984 31.1833L58.5756 38.2768L53.923 20.6683L68.7016 31.3165L68.0887 13.1111L80.128 26.7812L83.5814 8.89547L92.2738 24.8999L99.6232 8.23462L104.537 25.7739L115.409 11.1605L116.294 29.35L130.145 17.5239Z" fill="#C48828"/>
<path opacity="0.3" d="M182.982 249.175C200.292 249.175 214.324 247.371 214.324 245.146C214.324 242.921 200.292 241.117 182.982 241.117C165.672 241.117 151.639 242.921 151.639 245.146C151.639 247.371 165.672 249.175 182.982 249.175Z" fill="black"/>
<path opacity="0.3" d="M37.6794 243.542C37.6794 244.88 29.2428 245.961 18.8397 245.961C8.43655 245.961 0 244.896 0 243.542C0 242.188 8.43655 241.122 18.8397 241.122C29.2428 241.122 37.6794 242.204 37.6794 243.542Z" fill="black"/>
<path d="M38.1905 170.901C38.1988 170.891 38.2033 170.879 38.2033 170.866C38.2033 170.854 38.1988 170.841 38.1905 170.832C38.177 170.826 38.1619 170.825 38.1481 170.83C38.1342 170.835 38.1228 170.845 38.1159 170.858C36.466 174.787 35.159 178.85 34.2094 183.004C33.2619 187.153 32.5501 191.352 32.0776 195.582L31.7739 198.779C31.7259 199.312 31.6726 199.845 31.63 200.378L31.5447 201.977C31.5021 203.043 31.4328 204.109 31.4061 205.175V208.372L31.4434 209.971C31.4434 210.504 31.5021 211.037 31.5394 211.57C31.6193 212.636 31.6833 213.702 31.7845 214.768C31.987 216.9 32.3175 218.994 32.6319 221.094C32.6356 221.106 32.6431 221.116 32.6531 221.124C32.6632 221.131 32.6754 221.135 32.6879 221.135C32.7004 221.135 32.7125 221.131 32.7226 221.124C32.7327 221.116 32.7401 221.106 32.7438 221.094C32.7438 220.028 32.6905 218.962 32.6692 217.896C32.6479 216.83 32.5466 215.764 32.5626 214.725C32.5786 213.686 32.5626 212.593 32.5253 211.554L32.4987 209.955L32.5253 208.356V205.191L32.6106 202.03L32.6426 200.431C32.6426 199.899 32.7012 199.366 32.7332 198.833L32.925 195.667C33.2958 191.449 33.9025 187.255 34.7424 183.105C35.5384 178.946 36.6921 174.862 38.1905 170.901Z" fill="#263238"/>
<path d="M38.6447 187.454C38.6473 187.447 38.6485 187.44 38.6482 187.433C38.648 187.426 38.6463 187.419 38.6434 187.412C38.6404 187.406 38.6361 187.4 38.6309 187.395C38.6256 187.391 38.6195 187.387 38.6128 187.385C38.6054 187.382 38.5977 187.381 38.5899 187.382C38.5822 187.382 38.5746 187.384 38.5677 187.388C38.5607 187.391 38.5545 187.396 38.5495 187.402C38.5444 187.408 38.5406 187.415 38.5382 187.422C36.7265 192.702 35.5249 198.172 34.9568 203.725C34.6743 206.496 34.3652 209.267 34.3279 212.055C34.2577 214.842 34.3556 217.631 34.621 220.406C34.6238 220.419 34.6303 220.431 34.6398 220.441C34.6492 220.45 34.6612 220.456 34.6743 220.459C34.689 220.459 34.7031 220.454 34.714 220.444C34.7248 220.434 34.7316 220.421 34.7329 220.406C35.058 217.635 35.2659 214.869 35.4417 212.103C35.6176 209.337 35.6656 206.565 35.8468 203.799C36.0209 201.04 36.3501 198.293 36.8327 195.571C37.2879 192.834 37.8928 190.124 38.6447 187.454Z" fill="#263238"/>
<path d="M47.8217 193.279C47.8117 193.269 47.7983 193.264 47.7844 193.264C47.7704 193.264 47.757 193.269 47.7471 193.279C45.4519 194.747 43.3835 196.543 41.6075 198.609C40.7162 199.652 39.9139 200.768 39.2093 201.945L38.719 202.872L38.3299 203.842C38.1986 204.173 38.0865 204.511 37.9941 204.855C37.8929 205.185 37.7863 205.51 37.6957 205.846C36.9923 208.484 36.5672 211.188 36.4273 213.915C36.2887 216.637 36.3904 219.365 36.7311 222.069C36.7331 222.081 36.7388 222.092 36.7474 222.101C36.756 222.109 36.767 222.115 36.779 222.117C36.7943 222.117 36.8091 222.112 36.8209 222.102C36.8326 222.092 36.8404 222.079 36.843 222.064L37.5411 213.99C37.7314 211.32 38.0731 208.663 38.5644 206.033C38.6337 205.708 38.7296 205.393 38.8096 205.068C38.8861 204.746 38.9822 204.429 39.0973 204.119L39.4224 203.187L39.8435 202.302C40.484 201.14 41.2202 200.033 42.0445 198.992C43.6799 196.851 45.621 194.962 47.8057 193.386C47.8168 193.383 47.8268 193.377 47.8345 193.368C47.8421 193.36 47.8471 193.349 47.8488 193.338C47.8505 193.326 47.8489 193.315 47.8441 193.304C47.8392 193.294 47.8315 193.285 47.8217 193.279Z" fill="#263238"/>
<path d="M43.3819 203.65C42.1959 204.517 41.2422 205.663 40.6052 206.986C39.9187 208.297 39.3824 209.681 39.0064 211.111C38.8972 211.462 38.8065 211.818 38.7346 212.177L38.4788 213.243C38.3456 213.964 38.2548 214.692 38.207 215.423C38.207 216.153 38.175 216.889 38.207 217.613C38.2602 218.345 38.3563 219.073 38.4948 219.793C38.497 219.804 38.5021 219.814 38.5096 219.823C38.5171 219.831 38.5267 219.838 38.5374 219.841C38.5451 219.843 38.553 219.843 38.5607 219.841C38.5684 219.839 38.5757 219.836 38.5822 219.832C38.5887 219.827 38.5942 219.822 38.5984 219.815C38.6026 219.808 38.6054 219.801 38.6067 219.793C38.7745 219.09 38.9026 218.379 38.9904 217.661C39.1076 216.953 39.2142 216.244 39.2995 215.53C39.3848 214.815 39.4967 214.128 39.55 213.398C39.6033 212.668 39.7045 211.98 39.8538 211.293C40.0994 209.895 40.5017 208.529 41.0529 207.221C41.5439 205.883 42.348 204.683 43.3979 203.72C43.4065 203.709 43.4113 203.696 43.4113 203.682C43.4113 203.669 43.4065 203.655 43.3979 203.645C43.3923 203.646 43.3869 203.648 43.3819 203.65Z" fill="#263238"/>
<path d="M30.511 211.735C30.2072 208.154 29.6157 204.604 29.0561 201.076C28.4965 197.548 27.8782 193.977 27.2334 190.465C26.5885 186.953 25.8584 183.42 25.1016 179.918C25.101 179.911 25.0988 179.903 25.0952 179.897C25.0915 179.89 25.0865 179.884 25.0804 179.88C25.0744 179.875 25.0674 179.872 25.0601 179.87C25.0527 179.869 25.045 179.869 25.0376 179.87C25.023 179.874 25.0103 179.883 25.0024 179.896C24.9944 179.909 24.9918 179.925 24.995 179.94C25.6079 183.468 26.1622 187.012 26.6844 190.556C27.2067 194.1 27.7503 197.649 28.1767 201.215C28.6031 204.78 28.9548 208.335 29.4025 211.874L30.7135 222.533C30.7156 222.546 30.7219 222.558 30.7315 222.568C30.7411 222.578 30.7534 222.584 30.7668 222.586C30.7815 222.586 30.7956 222.581 30.8065 222.571C30.8173 222.561 30.8241 222.547 30.8254 222.533C30.8628 221.632 30.8681 220.731 30.8894 219.831C30.9107 218.93 30.8521 218.035 30.8361 217.134C30.7988 215.317 30.6442 213.526 30.511 211.735Z" fill="#263238"/>
<path d="M28.3473 211.682C28.1608 210.264 27.8997 208.852 27.6279 207.445L27.0949 205.355C26.9297 204.657 26.7751 203.959 26.562 203.272C25.8473 200.493 24.9318 197.769 23.8226 195.123L23.3909 194.137L22.9166 193.172C22.6128 192.522 22.2451 191.904 21.8933 191.275C21.1924 190.02 20.3227 188.867 19.3086 187.848C19.2986 187.838 19.2852 187.833 19.2712 187.833C19.2573 187.833 19.2439 187.838 19.2339 187.848C19.2238 187.859 19.2182 187.873 19.2182 187.888C19.2182 187.903 19.2238 187.917 19.2339 187.928C20.175 188.986 20.9691 190.165 21.5949 191.435C21.9093 192.069 22.2398 192.698 22.5062 193.354L22.9273 194.329L23.3003 195.325C24.2901 197.981 25.0881 200.704 25.6879 203.474C26.013 204.855 26.2209 206.262 26.498 207.652L26.8338 209.752C26.951 210.45 27.1002 211.143 27.2015 211.847C27.4253 213.243 27.6811 214.645 27.9263 216.046C28.1715 217.448 28.4006 218.855 28.6991 220.257C28.7014 220.269 28.7079 220.281 28.7175 220.29C28.7272 220.298 28.7394 220.304 28.7524 220.305C28.7675 220.303 28.7817 220.297 28.7925 220.286C28.8032 220.275 28.8098 220.261 28.811 220.246C28.811 218.818 28.779 217.384 28.7097 215.956C28.6405 214.528 28.5072 213.11 28.3473 211.682Z" fill="#263238"/>
<path d="M25.3957 211.863C24.7349 209.987 23.9621 208.132 23.1254 206.342C22.28 204.547 21.3279 202.805 20.2741 201.124C20.2636 201.115 20.2504 201.111 20.2368 201.111C20.2232 201.111 20.21 201.115 20.1995 201.124C20.1897 201.134 20.1843 201.147 20.1843 201.161C20.1843 201.175 20.1897 201.189 20.1995 201.199C21.1194 202.947 21.9327 204.75 22.6351 206.597C23.3599 208.425 24.0154 210.285 24.5697 212.177C25.1239 214.069 25.529 215.988 26.0299 217.885C26.5309 219.782 26.9839 221.69 27.5702 223.609C27.5735 223.621 27.5804 223.631 27.59 223.639C27.5995 223.647 27.6112 223.651 27.6234 223.652C27.6309 223.652 27.6383 223.65 27.6452 223.647C27.652 223.644 27.6581 223.64 27.6632 223.634C27.6682 223.629 27.672 223.622 27.6743 223.615C27.6767 223.608 27.6775 223.6 27.6767 223.593C27.7102 221.594 27.5315 219.596 27.1438 217.635C26.7184 215.667 26.1338 213.736 25.3957 211.863Z" fill="#263238"/>
<path d="M25.273 218.131C24.9014 216.956 24.363 215.842 23.6742 214.821C23.0535 213.774 22.2953 212.815 21.4198 211.97C20.9664 211.56 20.4778 211.191 19.9595 210.866C19.4493 210.532 18.8901 210.278 18.3021 210.115C18.2894 210.113 18.2766 210.116 18.2652 210.121C18.2538 210.127 18.2444 210.136 18.2381 210.147C18.2347 210.154 18.2328 210.162 18.2326 210.169C18.2323 210.177 18.2338 210.185 18.2369 210.192C18.2399 210.199 18.2444 210.205 18.2502 210.21C18.2559 210.215 18.2627 210.219 18.2701 210.222C19.3268 210.728 20.2628 211.455 21.0148 212.353C21.7803 213.23 22.4255 214.205 22.9334 215.253C23.4663 216.281 23.7541 217.422 24.2284 218.482C24.4363 219.015 24.6441 219.548 24.884 220.113C25.0885 220.681 25.3307 221.235 25.6088 221.771C25.6128 221.78 25.6195 221.788 25.628 221.794C25.6365 221.799 25.6465 221.802 25.6567 221.803C25.6642 221.803 25.6717 221.802 25.6788 221.8C25.6859 221.798 25.6924 221.794 25.6979 221.789C25.7034 221.784 25.7078 221.778 25.7108 221.771C25.7139 221.764 25.7154 221.757 25.7153 221.749C25.735 221.137 25.7118 220.525 25.6461 219.916C25.5448 219.319 25.4169 218.711 25.273 218.131Z" fill="#263238"/>
<path d="M25.4968 185.029C23.7067 184.529 22.0872 183.55 20.8134 182.196C19.5397 180.843 18.6602 179.167 18.2701 177.349C16.9111 171.029 21.2812 173.736 17.3641 163.802C13.4469 153.868 14.3529 151.608 15.7066 148.746C17.0603 145.884 17.8384 146.79 19.0215 150.553C20.2047 154.315 24.6175 160.189 26.2483 171.178C27.8791 182.167 25.4968 185.029 25.4968 185.029Z" fill="#C48828"/>
<path d="M37.0885 174.338C37.0885 174.338 33.1714 172.984 33.0221 165.608C32.8729 158.232 35.8841 159.746 36.3318 150.553C36.7794 141.359 37.3976 134.895 39.0444 134.745C40.6913 134.596 45.0668 139.259 46.5697 149.497C48.0726 159.735 44.6137 166.509 41.6026 169.52C38.5914 172.531 37.0885 174.338 37.0885 174.338Z" fill="#C48828"/>
<path d="M23.3862 193.913C23.3862 193.913 22.4855 188.493 20.6788 185.919C18.8721 183.345 14.9549 181.123 12.3968 176.129C9.83866 171.135 6.97673 168.753 7.12596 175.83C7.27518 182.908 10.4409 186.521 14.3527 188.93C18.2646 191.339 23.3862 193.913 23.3862 193.913Z" fill="#C48828"/>
<path d="M21.7279 203.256C21.7279 203.256 18.1145 196.328 12.849 191.211C7.58349 186.095 3.36255 183.537 4.85481 186.095C6.34706 188.653 8.16441 188.504 10.7172 193.023C13.27 197.543 12.5239 200.852 16.1373 203.41C19.7507 205.969 21.7279 203.256 21.7279 203.256Z" fill="#C48828"/>
<path d="M21.2811 212.13C21.1266 211.677 20.9774 208.367 15.8611 205.654C10.7448 202.942 5.9216 203.997 6.52383 205.356C7.12606 206.715 10.2864 208.969 13.4521 210.323C16.6178 211.677 21.2811 212.13 21.2811 212.13Z" fill="#C48828"/>
<path d="M36.7846 194.196C36.7846 194.196 34.5302 191.334 35.7187 185.317C36.9072 179.3 39.6359 180.797 42.647 177.637C45.6582 174.477 45.0559 174.024 48.0671 170.709C51.0782 167.394 53.7856 165.592 54.9954 166.946C56.2052 168.3 54.3932 172.515 52.5865 174.94C50.7798 177.365 47.9232 178.554 46.5642 181.565C45.2052 184.576 45.8127 189.394 42.3486 191.654C38.8844 193.913 36.7846 194.196 36.7846 194.196Z" fill="#C48828"/>
<path d="M44.3364 195.869C44.3364 195.869 49.7564 189.698 53.6683 185.178C57.5801 180.659 59.0883 177.184 59.2376 180.211C59.3868 183.239 60.5966 185.631 57.4309 189.549C54.2652 193.466 44.3364 195.869 44.3364 195.869Z" fill="#C48828"/>
<path d="M41.4533 205.803C41.4533 205.803 41.3041 203.394 49.8845 197.809C58.465 192.224 62.0783 191.185 61.1777 193.444C60.277 195.704 56.509 197.958 52.4427 202.025C48.3763 206.091 41.4533 205.803 41.4533 205.803Z" fill="#C48828"/>
<path d="M25.854 184.39C25.854 184.39 23.8394 173.587 21.729 165.907C19.6185 158.227 18.2701 153.564 18.2701 153.564" stroke="#263238" stroke-linecap="round" stroke-linejoin="round"/>
<path d="M36.7414 174.477C36.7414 174.477 40.3974 162.752 41.6019 155.696C42.8063 148.639 41.4526 143.347 40.8504 140.187" stroke="#263238" stroke-linecap="round" stroke-linejoin="round"/>
<path d="M22.911 193.663C21.2897 190.875 19.4337 188.231 17.363 185.759C14.0534 181.848 11.5006 179.737 9.98706 175.974" stroke="#263238" stroke-linecap="round" stroke-linejoin="round"/>
<path d="M36.7834 194.196C36.7834 194.196 37.9879 186.969 40.8498 183.207C43.7118 179.444 49.4303 173.571 51.69 169.808" stroke="#263238" stroke-linecap="round" stroke-linejoin="round"/>
<path d="M20.9231 211.964C20.9231 211.964 15.8601 208.665 12.2468 206.859" stroke="#263238" stroke-linecap="round" stroke-linejoin="round"/>
<path d="M35.6597 243.893H29.0299C28.4596 243.889 27.903 243.718 27.4293 243.401C26.9555 243.083 26.5855 242.634 26.3651 242.108C24.2014 236.922 18.4189 221.946 21.9044 217.699C25.2193 213.654 39.4916 213.654 42.8279 217.699C46.3133 221.962 40.5308 236.922 38.3618 242.108C38.1401 242.64 37.7646 243.095 37.2833 243.413C36.8019 243.731 36.2366 243.898 35.6597 243.893Z" fill="#263238" stroke="#263238" stroke-linecap="round" stroke-linejoin="round"/>
<path d="M79.414 202.35L98.3816 198.102" stroke="#263238" stroke-miterlimit="10"/>
<path d="M74.9189 201.396L70.8259 202.312L71.7423 206.405L75.8353 205.489L74.9189 201.396Z" stroke="#263238" stroke-miterlimit="10"/>
<path d="M80.912 209.044L99.8796 204.801" stroke="#263238" stroke-miterlimit="10"/>
<path d="M76.4199 208.095L72.3269 209.011L73.2433 213.104L77.3363 212.188L76.4199 208.095Z" stroke="#263238" stroke-miterlimit="10"/>
<path d="M82.4099 215.743L101.377 211.495" stroke="#263238" stroke-miterlimit="10"/>
<path d="M77.9163 214.79L73.8234 215.707L74.7397 219.8L78.8327 218.883L77.9163 214.79Z" stroke="#263238" stroke-miterlimit="10"/>
<path d="M83.9064 222.437L102.879 218.189" stroke="#263238" stroke-miterlimit="10"/>
<path d="M79.4173 221.48L75.3243 222.396L76.2407 226.489L80.3337 225.573L79.4173 221.48Z" stroke="#263238" stroke-miterlimit="10"/>
<path d="M85.4044 229.13L104.377 224.888" stroke="#263238" stroke-miterlimit="10"/>
<path d="M80.9138 228.18L76.8208 229.097L77.7372 233.19L81.8301 232.273L80.9138 228.18Z" stroke="#263238" stroke-miterlimit="10"/>
<path d="M61.0434 167.271L56.7798 146.454L61.2619 145.452L66.7192 157.955L66.5274 144.259L70.8549 143.294L75.854 163.946L72.7842 164.633L69.304 150.654L69.8103 165.299L67.1776 165.891L61.2405 152.354L64.1291 166.573L61.0434 167.271Z" fill="#263238"/>
<path d="M78.6797 163.322L74.0431 142.585L83.0765 140.565L83.7321 143.481L78.9355 144.547L80.1666 150.052L83.8973 149.22L84.5581 152.168L80.8275 152.999L82.2878 159.501L87.1483 158.408L87.7931 161.276L78.6797 163.322Z" fill="#263238"/>
<path d="M95.2593 159.933C94.0997 160.259 92.8669 160.21 91.7365 159.794C90.7508 159.357 89.9361 158.608 89.4182 157.662C88.7772 156.521 88.3153 155.288 88.0485 154.006L86.4976 147.078C86.1816 145.784 86.0736 144.447 86.1779 143.118C86.2663 142.026 86.7338 140.998 87.4996 140.214C88.4665 139.333 89.6646 138.747 90.9531 138.524C92.1582 138.193 93.4286 138.178 94.6411 138.482C95.584 138.764 96.4033 139.357 96.9647 140.166C97.5932 141.104 98.0314 142.156 98.2544 143.262L98.5209 144.467L94.4012 145.389L94.0708 143.928C93.9702 143.443 93.8275 142.967 93.6445 142.505C93.5162 142.144 93.2727 141.835 92.9516 141.626C92.556 141.435 92.102 141.402 91.6832 141.536C91.4549 141.565 91.2358 141.644 91.0408 141.766C90.8458 141.889 90.6796 142.052 90.5534 142.244C90.3561 142.621 90.2728 143.047 90.3135 143.47C90.3499 143.964 90.4247 144.454 90.5374 144.936L92.5945 154.129C92.7034 154.654 92.8715 155.166 93.0955 155.653C93.2632 156.046 93.5479 156.377 93.9109 156.602C94.317 156.801 94.7827 156.841 95.2166 156.714C95.6705 156.642 96.0781 156.395 96.3518 156.026C96.5912 155.655 96.7138 155.221 96.7036 154.779C96.7022 154.228 96.6378 153.679 96.5117 153.143L96.0214 150.942L93.9962 151.395L93.4259 148.837L99.2617 147.526L101.644 158.185L98.878 158.803L98.2065 156.991C98.0808 157.669 97.7773 158.302 97.3271 158.824C96.7764 159.408 96.0506 159.798 95.2593 159.933Z" fill="#263238"/>
<path d="M103.493 157.764L102.869 136.131L107.554 135.065L116.188 154.907L112.292 155.824L110.528 151.437L107.255 152.168L107.479 156.9L103.493 157.764ZM107.037 149.471L109.52 148.938L106.392 140.848L107.037 149.471Z" fill="#263238"/>
<path d="M72.1665 189.591C70.9068 189.94 69.5736 189.922 68.324 189.538C67.3115 189.17 66.4568 188.464 65.9044 187.539C65.275 186.464 64.83 185.292 64.588 184.07L62.9199 176.609C62.6141 175.359 62.5151 174.069 62.6268 172.787C62.7351 171.721 63.2119 170.726 63.9752 169.973C64.9509 169.108 66.1488 168.532 67.434 168.311C68.6304 167.98 69.8924 167.967 71.0953 168.273C72.0241 168.559 72.8236 169.16 73.355 169.973C73.95 170.897 74.3675 171.924 74.5861 173.001L74.9752 174.743L70.8821 175.66L70.4451 173.715C70.3462 173.265 70.2199 172.822 70.0667 172.388C69.9486 172.02 69.7219 171.697 69.4165 171.46C69.2254 171.348 69.0122 171.277 68.7915 171.254C68.5708 171.231 68.3477 171.256 68.1375 171.327C67.9104 171.358 67.6921 171.434 67.4959 171.553C67.2997 171.671 67.1299 171.828 66.997 172.015C66.798 172.37 66.7125 172.777 66.7518 173.182C66.7856 173.677 66.8586 174.169 66.9703 174.653L69.1021 184.075C69.2083 184.588 69.3691 185.089 69.5817 185.567C69.7345 185.934 70.002 186.24 70.3439 186.442C70.7242 186.619 71.1565 186.652 71.559 186.532C71.7731 186.505 71.979 186.433 72.1628 186.32C72.3467 186.207 72.5042 186.056 72.6249 185.877C72.8053 185.518 72.8739 185.113 72.8221 184.715C72.7807 184.234 72.7059 183.757 72.5982 183.286L72.1452 181.267L76.2383 180.35L76.6273 182.066C76.8883 183.154 76.9568 184.28 76.8298 185.392C76.7096 186.375 76.2608 187.29 75.5561 187.987C74.6025 188.834 73.4263 189.391 72.1665 189.591Z" fill="#263238"/>
<path d="M86.3492 186.415C85.11 186.763 83.799 186.763 82.5599 186.415C81.5549 186.073 80.6972 185.398 80.1297 184.501C79.4572 183.422 78.9842 182.231 78.7333 180.984L77.0066 173.251C76.6977 172.022 76.6164 170.747 76.7668 169.488C76.9022 168.444 77.3935 167.479 78.1578 166.754C79.1796 165.978 80.358 165.433 81.6113 165.157C82.8646 164.881 84.163 164.88 85.4165 165.155C86.4207 165.481 87.2814 166.143 87.8521 167.031C88.5242 168.101 88.9956 169.284 89.243 170.522L90.9698 178.255C91.2791 179.488 91.3603 180.767 91.2096 182.029C91.0782 183.085 90.587 184.063 89.8186 184.8C88.8316 185.645 87.6316 186.204 86.3492 186.415ZM85.6723 183.372C86.1138 183.31 86.5146 183.081 86.7915 182.732C86.996 182.398 87.0962 182.01 87.0793 181.618C87.0654 181.155 87.0065 180.695 86.9034 180.243L84.713 170.442C84.6222 169.998 84.4865 169.564 84.308 169.147C84.1575 168.789 83.9008 168.486 83.5725 168.278C83.1741 168.078 82.713 168.042 82.2881 168.177C81.8644 168.24 81.4818 168.465 81.2222 168.806C81.0162 169.134 80.9157 169.517 80.9344 169.904C80.9415 170.362 80.9987 170.818 81.105 171.263L83.2954 181.069C83.393 181.52 83.5321 181.961 83.7111 182.386C83.8525 182.751 84.1062 183.063 84.4359 183.276C84.8214 183.462 85.2627 183.496 85.6723 183.372Z" fill="#263238"/>
<path d="M95.1688 184.145L90.9052 163.333L95.382 162.331L100.871 174.839L100.679 161.143L105.007 160.173L110.006 180.83L106.936 181.517L103.44 167.549L103.973 182.194L101.308 182.78L95.3766 169.243L98.2599 183.462L95.1688 184.145Z" fill="#263238"/>
<path d="M112.809 180.201L108.167 159.464L113.417 158.291C114.256 158.097 115.113 157.984 115.975 157.956C116.731 157.932 117.484 158.057 118.192 158.323C118.88 158.591 119.477 159.049 119.913 159.645C120.449 160.424 120.812 161.309 120.979 162.24C121.164 162.964 121.205 163.718 121.102 164.458C121.011 165.045 120.765 165.597 120.387 166.056C119.987 166.526 119.478 166.891 118.906 167.122C119.661 167.051 120.421 167.178 121.112 167.49C121.765 167.805 122.318 168.294 122.711 168.902C123.186 169.65 123.519 170.48 123.692 171.349C123.915 172.263 123.985 173.209 123.9 174.147C123.824 174.906 123.57 175.636 123.159 176.278C122.734 176.909 122.171 177.434 121.512 177.813C120.726 178.265 119.873 178.589 118.986 178.772L112.809 180.201ZM114.264 166.877L115.33 166.643C115.912 166.549 116.462 166.311 116.929 165.95C117.255 165.654 117.455 165.243 117.488 164.804C117.531 164.251 117.485 163.695 117.35 163.157C117.256 162.624 117.029 162.123 116.689 161.702C116.388 161.367 115.978 161.15 115.532 161.089C114.96 161.02 114.38 161.058 113.822 161.201L113.054 161.377L114.264 166.877ZM116.369 176.273L117.547 176.012C118.613 175.774 119.282 175.346 119.556 174.727C119.847 173.918 119.871 173.036 119.625 172.212C119.498 171.542 119.254 170.9 118.906 170.315C118.64 169.895 118.231 169.586 117.755 169.446C117.177 169.308 116.574 169.318 116.001 169.473L114.898 169.718L116.369 176.273Z" fill="#263238"/>
<path d="M133.339 175.894C132.1 176.245 130.788 176.245 129.55 175.894C128.544 175.552 127.685 174.877 127.114 173.981C126.446 172.9 125.975 171.709 125.723 170.464L123.991 162.731C123.686 161.501 123.607 160.226 123.756 158.968C123.892 157.924 124.383 156.958 125.147 156.234C126.169 155.458 127.348 154.912 128.601 154.636C129.854 154.36 131.153 154.36 132.406 154.635C133.41 154.96 134.271 155.623 134.842 156.511C135.514 157.58 135.984 158.763 136.227 160.002L137.959 167.735C138.266 168.968 138.347 170.246 138.199 171.508C138.065 172.566 137.572 173.546 136.803 174.285C135.816 175.126 134.618 175.683 133.339 175.894ZM132.667 172.878C133.11 172.819 133.511 172.59 133.786 172.238C133.996 171.906 134.098 171.517 134.08 171.125C134.066 170.662 134.007 170.201 133.904 169.75L131.708 159.949C131.613 159.499 131.471 159.061 131.282 158.643C131.133 158.285 130.878 157.982 130.551 157.774C130.153 157.574 129.692 157.537 129.267 157.673C128.843 157.735 128.461 157.961 128.201 158.302C127.993 158.629 127.891 159.012 127.908 159.4C127.92 159.857 127.977 160.312 128.079 160.759L130.274 170.565C130.372 171.016 130.511 171.456 130.69 171.881C130.83 172.248 131.084 172.56 131.415 172.771C131.803 172.966 132.252 173.004 132.667 172.878Z" fill="#263238"/>
<path d="M141.337 95.5311L139.616 100.232L144.386 98.7181L141.657 102.918L146.651 102.507L143.053 105.993L148.01 106.707L143.73 109.308L148.404 111.104L143.655 112.681L147.812 115.474L142.829 115.959L146.262 119.604L141.295 118.97L143.826 123.287L139.125 121.56L140.634 126.335L136.439 123.607L136.844 128.595L133.359 125.003L132.65 129.959L130.049 125.68L128.253 130.354L126.67 125.6L123.883 129.757L123.398 124.774L119.748 128.206L120.387 123.239L116.07 125.776L117.792 121.075L113.022 122.583L115.75 118.384L110.757 118.794L114.354 115.309L109.398 114.595L113.677 111.999L109.003 110.203L113.752 108.62L109.595 105.828L114.578 105.343L111.151 101.697L116.113 102.332L113.581 98.0146L118.282 99.7414L116.774 94.9662L120.968 97.6949L120.563 92.7065L124.048 96.2985L124.757 91.3421L127.358 95.6217L129.154 90.9478L130.737 95.7016L133.53 91.5447L134.009 96.5277L137.66 93.0955L137.02 98.0626L141.337 95.5311Z" fill="#263238" stroke="#263238" stroke-linecap="round" stroke-linejoin="round"/>
<path d="M114.211 117.984L113.619 104.624L119.258 104.378L119.337 106.222L116.417 106.35L116.577 109.964L119.05 109.852L119.135 111.749L116.662 111.856L116.923 117.857L114.211 117.984Z" fill="#C48828"/>
<path d="M121.149 117.675L120.547 104.32L124.011 104.165C124.793 104.117 125.579 104.187 126.34 104.373C126.954 104.519 127.496 104.878 127.869 105.386C128.281 106.02 128.494 106.762 128.482 107.517C128.511 108.007 128.486 108.499 128.408 108.983C128.342 109.386 128.189 109.77 127.96 110.108C127.713 110.451 127.38 110.725 126.995 110.902L129.127 117.334L126.345 117.457L124.544 111.472L123.59 111.515L123.856 117.563L121.149 117.675ZM123.531 109.889L124.325 109.852C124.685 109.855 125.039 109.765 125.354 109.591C125.611 109.443 125.801 109.203 125.887 108.919C125.981 108.572 126.019 108.212 125.999 107.853C126.003 107.359 125.864 106.874 125.599 106.457C125.437 106.285 125.235 106.156 125.011 106.081C124.787 106.006 124.548 105.987 124.315 106.025L123.393 106.068L123.531 109.889Z" fill="#C48828"/>
<path d="M130.71 117.254L130.14 103.899L135.96 103.643L136.045 105.524L132.943 105.657L133.098 109.202L135.491 109.1L135.571 110.992L133.183 111.099L133.364 115.288L136.498 115.149L136.578 116.993L130.71 117.254Z" fill="#C48828"/>
<path d="M137.932 116.919L137.346 103.595L143.166 103.339L143.246 105.215L140.149 105.354L140.304 108.898L142.697 108.791L142.777 110.688L140.389 110.795L140.57 114.979L143.704 114.845L143.784 116.689L137.932 116.919Z" fill="#C48828"/>
<path d="M112.674 98.1008C116.006 96.225 116.039 89.9659 112.748 84.1207C109.457 78.2754 104.088 75.0576 100.756 76.9334C97.4248 78.8091 97.3917 85.0683 100.683 90.9135C103.974 96.7587 109.342 99.9766 112.674 98.1008Z" fill="white" stroke="#263238" stroke-miterlimit="10"/>
<path d="M124.271 96.6622C129.93 93.9775 131.209 84.8272 127.128 76.2244C123.046 67.6215 115.15 62.8239 109.491 65.5085C103.832 68.1932 102.553 77.3436 106.635 85.9464C110.716 94.5493 118.612 99.3469 124.271 96.6622Z" fill="#263238" stroke="#263238" stroke-linecap="round" stroke-linejoin="round"/>
<path d="M121.884 77.6242C123.952 81.9784 123.707 86.4178 121.351 87.5423C118.996 88.6669 115.388 86.0448 113.32 81.6799C111.252 77.3151 111.503 72.8863 113.853 71.7671C116.203 70.6479 119.822 73.27 121.884 77.6242Z" fill="#545454" stroke="#263238" stroke-linecap="round" stroke-linejoin="round"/>
<path d="M106.632 85.9491C102.789 77.8483 103.7 69.2679 108.54 66.0489C108.268 66.1715 104.308 69.2466 103.93 69.609C102.527 71.0185 101.539 72.7866 101.073 74.7199C99.9378 79.3459 101.009 84.3983 103.018 88.6298C107.095 97.2316 114.994 102.033 120.653 99.3474C121.039 99.1621 121.408 98.9446 121.757 98.6972L121.901 98.7612L124.277 96.6667C118.607 99.3314 110.714 94.5349 106.632 85.9491Z" fill="white" stroke="#263238" stroke-miterlimit="10"/>
<path d="M151.741 85.5695C156.62 76.3731 155.77 66.368 149.842 63.2226C143.914 60.0772 135.152 64.9825 130.273 74.1789C125.393 83.3753 126.243 93.3804 132.172 96.5258C138.1 99.6712 146.861 94.7659 151.741 85.5695Z" fill="white" stroke="#263238" stroke-miterlimit="10"/>
<path d="M130.262 74.171C134.878 65.4786 142.963 60.6235 148.841 62.7766L142.398 59.9306C136.471 56.7862 127.88 61.3643 123.212 70.1525C118.543 78.9408 119.577 88.6192 125.503 91.7689L130.492 95.3236C126.127 91.3052 125.876 82.4157 130.262 74.171Z" fill="#263238" stroke="#263238" stroke-linecap="round" stroke-linejoin="round"/>
<path d="M156.254 51.1369C155.79 42.8816 153.2 34.4184 149.901 30.6238C146.602 26.8292 139.429 24.2284 136.071 23.5622C132.714 22.8961 127.725 22.0167 121.874 26.6107C116.022 31.2047 112.222 36.5182 107.425 49.1437C104.185 57.6709 102.949 66.5657 102.48 71.4422C102.902 70.7808 103.393 70.1663 103.945 69.6089C104.324 69.2251 108.283 66.1714 108.555 66.0488C108.86 65.8515 109.177 65.6735 109.504 65.5158C110.802 64.9133 112.237 64.6685 113.661 64.807C115.318 56.12 118.521 45.0347 122.812 38.7832C127.176 32.4358 132.612 29.7231 135.522 29.446C139.338 29.0782 140.607 30.6291 142.003 32.2919C143.069 33.555 145.947 38.5274 145.355 48.8932C145.114 54.0002 143.918 59.0167 141.827 63.6825C140.863 65.852 139.526 67.8361 137.878 69.5449C134.067 73.4941 131.131 77.7043 130.678 83.3589C130.321 87.8143 131.744 92.8347 135.959 95.0571C141.678 98.0949 149.624 94.3216 153.701 86.6365C156.504 81.3497 156.494 75.1142 156.046 69.2998C155.796 66.2886 156.702 59.3869 156.254 51.1369Z" fill="white" stroke="#263238" stroke-miterlimit="10"/>
<path d="M153.686 86.6472C156.49 81.3603 156.479 75.1248 156.031 69.3104C155.797 66.2939 156.703 59.3869 156.239 51.1369C155.775 42.8869 153.185 34.4184 149.886 30.6238C146.587 26.8292 139.414 24.2284 136.056 23.5622C135.342 23.4237 134.559 23.2744 133.711 23.1678C141.791 27.0637 143.997 33.9973 143.997 33.9973C145.239 36.3796 146.801 41.1441 146.353 49.0478C146.108 54.1524 144.911 59.1664 142.825 63.8317C141.86 66.0009 140.523 67.9849 138.876 69.6941C135.06 73.6433 132.123 77.8535 131.676 83.5134C131.319 87.9635 132.742 92.9892 136.957 95.2383C137.694 95.6269 138.481 95.9103 139.297 96.0803C144.466 96.576 150.361 92.9359 153.686 86.6472Z" fill="#C48828" stroke="#263238" stroke-linecap="round" stroke-linejoin="round"/>
<path d="M152.583 86.6113C155.745 80.6519 154.799 73.9589 150.47 71.6619C146.141 69.3649 140.068 72.3338 136.906 78.2932C133.744 84.2525 134.691 90.9456 139.02 93.2425C143.349 95.5395 149.421 92.5706 152.583 86.6113Z" fill="white" stroke="#263238" stroke-miterlimit="10"/>
<path d="M51.6157 24.575L17.1181 42.3488C16.0076 42.9231 15.1701 43.9144 14.7895 45.1054C14.4088 46.2963 14.516 47.5895 15.0876 48.7015L58.1923 132.374C58.4756 132.931 58.8665 133.425 59.3424 133.829C59.8183 134.233 60.3697 134.539 60.9646 134.728C61.5595 134.918 62.1861 134.987 62.8081 134.932C63.43 134.878 64.0349 134.7 64.5877 134.41L99.0853 116.636C99.6364 116.352 100.126 115.963 100.526 115.489C100.927 115.016 101.23 114.469 101.419 113.878C101.607 113.288 101.677 112.666 101.626 112.048C101.574 111.43 101.4 110.829 101.116 110.278L58.0004 26.6055C57.7161 26.0515 57.325 25.5592 56.8496 25.157C56.3743 24.7547 55.824 24.4505 55.2306 24.2618C54.6372 24.073 54.0123 24.0035 53.3919 24.0573C52.7715 24.1111 52.1679 24.287 51.6157 24.575ZM98.1953 109.239C98.7681 110.352 98.8755 111.647 98.4937 112.839C98.1119 114.032 97.2723 115.024 96.1594 115.597L65.3977 131.447C64.847 131.731 64.2456 131.905 63.6279 131.957C63.0102 132.008 62.3883 131.938 61.7978 131.75C61.2073 131.561 60.6598 131.258 60.1865 130.857C59.7132 130.457 59.3235 129.967 59.0397 129.416L17.9815 49.7674C17.692 49.2145 17.515 48.6096 17.4608 47.9879C17.4065 47.3661 17.476 46.7398 17.6654 46.145C17.8547 45.5503 18.16 44.999 18.5637 44.5231C18.9674 44.0471 19.4615 43.6559 20.0173 43.372L25.7412 40.4408L26.951 41.9118C27.3039 42.3423 27.7939 42.6385 28.3391 42.7511C28.8843 42.8636 29.4516 42.7856 29.9461 42.53L45.2577 34.637C45.7472 34.3788 46.1339 33.9613 46.3538 33.4535C46.5738 32.9457 46.6139 32.3781 46.4675 31.8444L45.9718 30.0057L50.7684 27.5328C51.8815 26.96 53.1766 26.8527 54.3689 27.2345C55.5611 27.6162 56.553 28.4558 57.1264 29.5687L98.1953 109.239Z" fill="#878787" stroke="#263238" stroke-miterlimit="10"/>
<path d="M53.5783 24.4226L20.1359 41.654C17.768 42.8741 16.8375 45.7827 18.0575 48.1507L60.0558 129.66C61.2759 132.028 64.1846 132.959 66.5525 131.739L99.9949 114.507C102.363 113.287 103.293 110.379 102.073 108.011L60.075 26.501C58.8549 24.133 55.9463 23.2025 53.5783 24.4226Z" fill="white" stroke="#263238" stroke-miterlimit="10"/>
<path d="M37.7282 32.5797L24.6923 39.3001C23.2944 43.3138 21.5634 47.2037 19.5174 50.929C19.592 51.0889 19.656 51.2488 19.7359 51.4087L26.2165 63.9649C27.9966 60.4634 29.8885 56.413 31.8391 51.7071C35.3726 43.2119 37.03 37.0084 37.7282 32.5797Z" stroke="#263238" stroke-linecap="round" stroke-linejoin="round"/>
<path d="M68.2392 42.3434C70.9412 53.9137 72.8652 70.6216 68.2392 88.081C64.1248 103.595 62.9097 118.811 62.7658 130.37C63.8961 130.827 65.1116 131.035 66.3294 130.979C67.5472 130.922 68.7386 130.604 69.822 130.045L80.1665 124.716C79.0473 118.043 78.8875 109.186 80.8913 97.5781C82.3048 89.3118 83.2885 80.9777 83.8385 72.6095L68.2392 42.3434Z" stroke="#263238" stroke-linecap="round" stroke-linejoin="round"/>
<path d="M57.5484 71.2291C61.812 49.2664 58.5397 33.7949 55.4646 25.2571C53.6992 24.9838 51.8926 25.2787 50.3057 26.0992L46.575 28.0231C47.5343 33.5871 48.2485 42.3487 47.4064 55.4539C46.6763 66.8056 43.4147 79.5111 39.8652 90.4578L50.1458 110.401C52.2083 99.1768 54.7718 85.5014 57.5484 71.2291Z" stroke="#263238" stroke-linecap="round" stroke-linejoin="round"/>
<path d="M53.4659 23.6207L18.9683 41.3945C17.8563 41.9688 17.0179 42.9611 16.6372 44.1533C16.2564 45.3455 16.3645 46.64 16.9377 47.7525L60.0532 131.425C60.6292 132.535 61.6227 133.371 62.815 133.749C64.0073 134.127 65.3009 134.016 66.4112 133.44L100.909 115.666C102.02 115.095 102.86 114.108 103.245 112.919C103.63 111.73 103.527 110.437 102.961 109.324L59.84 25.6512C59.5562 25.0981 59.1658 24.6065 58.6913 24.2048C58.2168 23.8031 57.6676 23.4991 57.0752 23.3104C56.4829 23.1217 55.859 23.052 55.2396 23.1052C54.6202 23.1585 54.0174 23.3337 53.4659 23.6207ZM100.045 108.285C100.618 109.398 100.726 110.693 100.344 111.885C99.9621 113.077 99.1225 114.069 98.0096 114.643L67.2533 130.498C66.1401 131.071 64.845 131.178 63.6528 130.796C62.4605 130.415 61.4686 129.575 60.8952 128.462L19.821 48.7918C19.5375 48.241 19.3652 47.6398 19.3141 47.0224C19.263 46.405 19.334 45.7836 19.523 45.1937C19.7121 44.6038 20.0155 44.0569 20.4159 43.5842C20.8164 43.1116 21.306 42.7225 21.8568 42.4391L27.5807 39.4865L28.7852 40.9575C29.1384 41.3859 29.6274 41.6808 30.1712 41.7932C30.7149 41.9056 31.2808 41.8289 31.775 41.5757L47.0919 33.6827C47.5853 33.4279 47.9765 33.0119 48.2005 32.5038C48.4245 31.9957 48.4677 31.4262 48.323 30.8901L47.8274 29.0514L52.6239 26.5839C53.1746 26.2993 53.776 26.1261 54.3937 26.0742C55.0114 26.0223 55.6333 26.0926 56.2238 26.2812C56.8143 26.4698 57.3619 26.7729 57.8351 27.1733C58.3084 27.5736 58.6981 28.0633 58.9819 28.6144L100.045 108.285Z" fill="#263238" stroke="#263238" stroke-miterlimit="10"/>
<path d="M202.695 229.775C202.773 230.812 202.995 231.833 203.356 232.808C203.889 233.991 206.65 238.206 207.966 239.395C209.283 240.583 213.765 243.349 213.237 244.666C212.709 245.982 210.865 246.115 207.966 245.982C205.067 245.849 201.773 245.449 201.379 245.06C200.985 244.671 199.423 241.628 197.425 240.562C195.426 239.496 192.287 237.663 193.076 234.897C193.864 232.131 196.636 228.304 196.636 228.304C196.636 228.304 200.324 231.092 202.695 229.775Z" fill="#D9D9D9" stroke="#263238" stroke-linecap="round" stroke-linejoin="round"/>
<path d="M213.237 244.666C213.712 243.478 210.136 241.122 208.441 239.795C207.808 239.847 207.193 240.028 206.634 240.328C205.721 240.891 204.842 241.507 204.001 242.172C204.001 242.172 198.731 238.878 197.409 236.24C196.524 234.476 195.469 232.296 194.861 231.049C194.115 232.268 193.511 233.568 193.06 234.924C192.271 237.69 195.432 239.539 197.409 240.589C199.386 241.639 200.969 244.677 201.363 245.071C201.758 245.466 205.051 245.86 207.951 245.993C210.85 246.126 212.71 245.983 213.237 244.666Z" fill="#263238" stroke="#263238" stroke-linecap="round" stroke-linejoin="round"/>
<path d="M218.222 127.396C218.222 127.396 222.032 134.325 218.531 154.971C216.191 168.764 216.431 163.376 212.562 181.976C211.288 188.115 212.231 194.83 209.268 202.761C206.305 210.691 202.873 230.857 202.873 230.857C202.873 230.857 198.364 232.43 197.048 230.783C195.731 229.136 196.717 225.507 196.717 225.507C196.717 225.507 196.056 205.729 196.717 197.159C197.158 191.797 198.151 186.494 199.68 181.336L191.74 146.998L185.685 125.819C185.685 125.819 212.999 121.273 218.222 127.396Z" fill="#263238" stroke="#263238" stroke-linecap="round" stroke-linejoin="round"/>
<path d="M165.316 195.635C165.316 195.635 162.038 197.9 160.018 198.406C157.998 198.912 154.726 199.669 153.969 201.433C153.212 203.197 155.733 211.026 156.24 213.281C156.746 215.535 159.261 221.6 162.038 223.114C164.815 224.627 166.302 226.141 167.586 224.121C168.87 222.101 166.072 216.052 166.072 213.787C166.072 211.522 167.08 202.947 167.08 202.947L165.316 195.635Z" fill="#D9D9D9" stroke="#263238" stroke-linecap="round" stroke-linejoin="round"/>
<path d="M157.444 199.104C155.909 199.605 154.428 200.319 153.948 201.433C153.191 203.197 155.712 211.026 156.218 213.281C156.725 215.535 159.24 221.6 162.017 223.114C164.794 224.627 166.28 226.141 167.565 224.121C168.849 222.101 166.051 216.052 166.051 213.787L160.754 214.794C160.754 214.794 158.041 205.388 157.444 199.104Z" fill="#263238" stroke="#263238" stroke-linecap="round" stroke-linejoin="round"/>
<path d="M199.579 138.151C199.579 138.151 202.1 153.532 205.377 161.601C208.655 169.67 210.675 174.706 208.655 181.517C207.632 184.976 166.302 204.711 166.302 204.711C165.534 204.365 164.859 203.841 164.333 203.183C163.807 202.525 163.444 201.752 163.275 200.927C162.774 198.156 163.53 196.664 163.53 196.664C163.53 196.664 177.648 186.58 181.176 183.303C184.704 180.025 192.523 175.484 192.523 175.484C192.523 175.484 174.872 152.797 176.135 139.686C177.398 126.576 183.969 122.781 183.969 122.781" fill="#263238"/>
<path d="M199.579 138.151C199.579 138.151 202.1 153.532 205.377 161.601C208.655 169.67 210.675 174.706 208.655 181.517C207.632 184.976 166.302 204.711 166.302 204.711C165.534 204.365 164.859 203.841 164.333 203.183C163.807 202.525 163.444 201.752 163.275 200.927C162.774 198.156 163.53 196.664 163.53 196.664C163.53 196.664 177.648 186.58 181.176 183.303C184.704 180.025 192.523 175.484 192.523 175.484C192.523 175.484 174.872 152.797 176.135 139.686C177.398 126.576 183.969 122.781 183.969 122.781" stroke="#263238" stroke-linecap="round" stroke-linejoin="round"/>
<path d="M205.024 184.757C205.024 184.757 207.972 181.155 208.297 177.227C208.622 173.299 201.752 150.047 200.111 145.783C198.469 141.519 191.274 139.564 187.32 139.238" stroke="#787878" stroke-linecap="round" stroke-linejoin="round"/>
<path d="M215.413 58.0122C215.69 57.0902 216.958 56.7544 217.124 55.7898C217.289 54.8252 216.191 54.111 216.223 53.1251C216.255 52.1391 217.401 51.5262 217.289 50.5456C217.177 49.565 215.951 49.1706 215.738 48.238C215.525 47.3053 216.463 46.3886 216.122 45.472C215.781 44.5553 214.47 44.4913 214.022 43.6493C213.574 42.8072 214.251 41.6827 213.681 40.8886C213.111 40.0945 211.831 40.3557 211.181 39.6682C210.531 38.9807 210.888 37.7069 210.115 37.0887C209.343 36.4705 208.186 37.0567 207.376 36.5558C206.566 36.0548 206.582 34.7437 205.692 34.344C204.802 33.9443 203.821 34.813 202.905 34.5359C201.988 34.2588 201.668 32.9903 200.704 32.8251C199.739 32.6599 199.014 33.7578 198.039 33.7258C197.064 33.6938 196.44 32.548 195.47 32.6599C194.5 32.7718 194.079 33.9976 193.146 34.2161C192.214 34.4346 191.302 33.502 190.386 33.8484C189.469 34.1948 189.394 35.5005 188.552 35.9802C187.71 36.4598 186.586 35.767 185.792 36.3372C184.998 36.9075 185.259 38.1919 184.566 38.8474C183.873 39.503 182.605 39.1512 181.986 39.9133C181.368 40.6754 181.96 41.8426 181.454 42.658C180.947 43.4734 179.641 43.4627 179.242 44.3581C178.842 45.2534 179.716 46.2341 179.439 47.1561C179.162 48.0781 177.899 48.4032 177.739 49.3731C177.579 50.3431 178.677 51.0626 178.645 52.0379C178.613 53.0132 177.472 53.6367 177.579 54.6227C177.686 55.6086 178.922 56.0136 179.146 56.9463C179.37 57.879 178.426 58.8063 178.773 59.7283C179.119 60.6503 180.441 60.7302 180.905 61.5829C181.368 62.4357 180.691 63.5762 181.267 64.3809C181.843 65.1857 183.127 64.9139 183.788 65.628C184.449 66.3422 184.118 67.6266 184.854 68.2554C185.589 68.8843 186.767 68.2554 187.577 68.7884C188.387 69.3213 188.382 70.6271 189.272 71.0268C190.162 71.4265 191.116 70.5471 192.033 70.8242C192.949 71.1014 193.258 72.3751 194.218 72.5297C195.177 72.6842 195.88 71.581 196.824 71.6023C197.767 71.6237 198.423 72.7748 199.371 72.6682C200.32 72.5617 200.73 71.3039 201.652 71.0694C202.574 70.8349 203.48 71.7782 204.392 71.4211C205.303 71.0641 205.377 69.7477 206.214 69.2894C207.051 68.831 208.181 69.4865 208.975 68.911C209.769 68.3354 209.508 67.0403 210.201 66.3795C210.893 65.7186 212.167 66.065 212.785 65.3136C213.404 64.5621 212.812 63.3736 213.318 62.5582C213.825 61.7428 215.136 61.7375 215.535 60.8421C215.935 59.9468 215.146 58.9289 215.413 58.0122Z" fill="#263238" stroke="#263238" stroke-linecap="round" stroke-linejoin="round"/>
<path d="M185.423 56.9304C185.298 56.8876 185.189 56.8102 185.107 56.7073C185.024 56.6045 184.973 56.4803 184.959 56.3494C184.791 55.083 184.791 53.8 184.959 52.5335C186.494 45.2375 191.152 39.2632 198.981 40.3344C206.81 41.4056 209.741 48.3606 209.688 55.8165C209.649 56.341 209.567 56.8615 209.443 57.3727C209.363 57.7617 209.736 58.1082 209.363 58.0282C208.99 57.9483 209.032 57.4953 209.08 57.1382C209.128 56.7811 209.256 56.2908 209.262 55.9018C209.304 49.208 205.883 42.642 198.832 41.6721C191.781 40.7021 187.027 46.314 185.652 52.864C185.511 54.0197 185.511 55.1884 185.652 56.3441C185.675 56.5142 185.632 56.6865 185.534 56.8267C185.435 56.967 185.287 57.0649 185.119 57.1009C184.991 57.1222 185.508 56.9623 185.423 56.9304Z" fill="white" stroke="#263238" stroke-miterlimit="10"/>
<path d="M184.501 57.7615C184.4 57.7615 184.303 57.7218 184.231 57.651C184.16 57.5802 184.119 57.484 184.117 57.3831L184.085 53.1569C184.085 53.0565 184.125 52.9603 184.196 52.8893C184.267 52.8183 184.363 52.7785 184.464 52.7785C184.513 52.7778 184.562 52.7869 184.608 52.8053C184.654 52.8238 184.696 52.8511 184.731 52.8858C184.766 52.9206 184.794 52.9619 184.813 53.0075C184.832 53.0531 184.842 53.1021 184.842 53.1515L184.874 57.3778C184.874 57.4778 184.835 57.5738 184.765 57.6454C184.696 57.7171 184.601 57.7588 184.501 57.7615Z" fill="white" stroke="#263238" stroke-miterlimit="10"/>
<path d="M184.816 56.8928C184.688 55.2386 184.708 53.5764 184.874 51.9257C185.802 44.5231 191.067 38.65 198.896 39.7265C206.725 40.8031 209.886 47.8433 209.827 55.2992C209.827 55.7309 209.827 56.2958 209.774 56.6902C209.72 57.0846 209.619 59.0778 209.241 59.0032C208.862 58.9286 208.942 56.9034 208.985 56.5303C209.07 56.1204 209.13 55.7057 209.166 55.2886C209.214 48.6001 205.793 42.0289 198.742 41.0589C191.691 40.0889 186.937 45.7009 185.562 52.2508C185.376 54.0209 185.329 55.8029 185.423 57.5803C185.423 57.948 185.519 57.7721 185.141 57.8307C185.034 57.8254 184.837 57.1592 184.816 56.8928Z" fill="#C48828" stroke="#263238" stroke-linecap="round" stroke-linejoin="round"/>
<path d="M207.993 60.9061L207.135 60.8581C206.851 60.8349 206.587 60.7025 206.4 60.4887C206.212 60.275 206.114 59.9966 206.127 59.7123L206.362 53.0931C206.37 52.8159 206.486 52.553 206.685 52.3599C206.884 52.1669 207.151 52.059 207.428 52.0591L208.281 52.1124C208.565 52.1343 208.829 52.2664 209.017 52.4804C209.205 52.6945 209.303 52.9736 209.288 53.2583L209.075 59.8935C209.061 60.1696 208.94 60.4296 208.738 60.6185C208.537 60.8074 208.269 60.9106 207.993 60.9061Z" fill="white" stroke="#263238" stroke-miterlimit="10"/>
<path d="M187.236 60.0425L186.383 60.0106C186.098 59.9954 185.83 59.8692 185.637 59.659C185.444 59.4489 185.34 59.1714 185.349 58.886L185.445 52.2615C185.445 51.9788 185.557 51.7077 185.757 51.5078C185.957 51.3079 186.228 51.1956 186.511 51.1956H187.369C187.654 51.2135 187.92 51.3414 188.112 51.5523C188.304 51.7631 188.407 52.0404 188.398 52.3255L188.307 58.95C188.311 59.0926 188.286 59.2346 188.233 59.3673C188.181 59.5001 188.102 59.621 188.003 59.7229C187.903 59.8248 187.783 59.9056 187.652 59.9605C187.52 60.0154 187.379 60.0433 187.236 60.0425Z" fill="white" stroke="#263238" stroke-miterlimit="10"/>
<path d="M210.082 58.4918C210.032 58.4904 209.983 58.4791 209.937 58.4585C209.891 58.4378 209.85 58.4083 209.816 58.3716C209.782 58.3349 209.755 58.2918 209.738 58.2447C209.72 58.1976 209.712 58.1476 209.714 58.0974L209.874 53.8765C209.876 53.8268 209.887 53.7779 209.907 53.7325C209.927 53.6871 209.957 53.6462 209.993 53.612C210.029 53.5779 210.071 53.5512 210.118 53.5334C210.164 53.5157 210.214 53.5073 210.263 53.5088C210.364 53.5143 210.458 53.5584 210.527 53.6319C210.595 53.7054 210.633 53.8026 210.631 53.9031L210.471 58.1294C210.47 58.1789 210.459 58.2276 210.438 58.2727C210.418 58.3178 210.389 58.3584 210.353 58.3921C210.316 58.4258 210.274 58.452 210.227 58.4691C210.181 58.4862 210.132 58.494 210.082 58.4918Z" fill="white" stroke="#263238" stroke-miterlimit="10"/>
<path d="M242.592 84.5154C237.721 80.8327 224.099 78.8235 219.841 77.2033C213.707 74.8637 211.484 75.0715 207.935 75.4553C204.385 75.839 204.497 77.4698 202.072 76.1801C199.647 74.8903 201.257 69.6248 201.006 67.4771C198.251 68.5429 195.325 69.0066 192.442 68.1699C192.442 70.6428 193.817 73.7072 193.087 76.0841C192.357 78.4611 191.296 78.184 188.29 78.2159C185.284 78.2479 183.531 75.9083 178.942 78.9248C174.354 81.9412 164.02 91.6728 160.7 95.5847C157.379 99.4965 158.738 100.189 162.405 100.706C166.072 101.223 174.396 95.558 178.01 93.357C180.477 98.8676 185.508 106.521 186.068 112.111C186.628 117.702 182.721 119.637 181.335 124.268C181.01 125.334 176.683 130.663 177.775 131.42C196.556 144.568 219.596 132.294 219.596 132.294C217.581 120.447 214.074 116.156 213.733 114.707C212.555 109.788 212.769 105.561 213.152 101.053C213.536 96.544 213.333 93.1544 213.547 88.9069C223.364 89.2479 231.608 91.1346 241.793 92.323C245.385 92.7387 246.483 87.4519 242.592 84.5154Z" fill="#C48828" stroke="#263238" stroke-linecap="round" stroke-linejoin="round"/>
<path d="M185.722 110.054C194.637 107.963 203.728 106.714 212.876 106.324C212.876 105.897 212.876 105.466 212.913 105.039C203.677 105.423 194.201 106.537 185.376 108.845C185.509 109.244 185.621 109.649 185.722 110.054Z" fill="#263238"/>
<path d="M215.413 118.091C205.185 118.528 193.269 119.397 182.855 121.076C182.588 121.518 182.322 121.982 182.093 122.467C192.912 120.649 205.287 119.706 215.946 119.312C215.748 118.869 215.562 118.464 215.413 118.091Z" fill="#263238"/>
<path d="M213.216 111.882C204.049 112.358 194.925 113.462 185.908 115.187C185.814 115.606 185.689 116.017 185.535 116.418C194.738 114.646 204.057 113.537 213.419 113.097C213.339 112.687 213.28 112.282 213.216 111.882Z" fill="#263238"/>
<path d="M225.821 78.9142L224.606 78.5997C223.42 82.2357 223.19 86.1158 223.94 89.8662C224.377 89.9089 224.814 89.9568 225.251 90.0101C224.443 86.3272 224.64 82.4949 225.821 78.9142Z" fill="#263238"/>
<path d="M181.836 87.9743C191.835 89.7756 202.088 87.2441 211.681 84.5847C211.948 85.7466 212.678 88.1128 212.998 88.9336C213.318 89.7543 213.179 89.1041 213.478 89.4665C213.525 89.5305 213.563 89.4665 213.563 89.4665C213.595 89.3066 213.563 89.0775 213.605 88.8909C213.824 88.9549 213.968 88.811 214.229 89.0135C213.787 87.6971 214.762 90.4578 213.978 88.1874C213.195 85.9171 211.681 78.7703 212.747 75.3008C212.342 75.1579 211.914 75.0875 211.484 75.0929C211.269 76.2358 211.15 77.3945 211.127 78.5571C202.179 81.5363 192.805 83.0019 183.446 81.2858C183.545 79.9463 183.545 78.6015 183.446 77.262C183.031 77.2825 182.618 77.3324 182.21 77.4113C182.289 78.5646 182.289 79.7221 182.21 80.8754C181.727 79.8601 181.108 78.9153 180.371 78.0668C180.062 78.2213 179.758 78.3812 179.46 78.5624L179.273 78.6797C180.749 80.4118 181.618 82.1225 181.629 84.4302C181.336 85.5999 180.963 86.7484 180.515 87.8677C179.868 85.1888 178.347 82.8017 176.193 81.0833C175.883 81.3604 175.574 81.6162 175.265 81.9093C177.733 83.8919 179.529 86.7485 179.438 89.7703C179.438 90.3299 179.47 89.9355 179.438 89.9941C179.118 90.6312 178.75 91.2424 178.335 91.8221C177.147 88.8182 175.054 86.2587 172.345 84.4995L171.401 85.3575C174.381 87.2921 176.363 89.653 177.397 93.0746C177.061 93.4796 176.726 93.8847 176.395 94.295C176.971 93.9539 177.546 93.6129 178.1 93.2291C178.202 93.453 178.298 93.6821 178.399 93.906L178.623 93.6129C179.938 91.8835 181.019 89.9875 181.836 87.9743ZM211.101 79.8468C211.149 81.03 211.244 82.2025 211.41 83.3749C202.019 86.0397 192.064 88.3367 182.252 86.7911C182.433 86.2582 182.577 85.7252 182.732 85.1923C182.759 85.1191 182.782 85.0443 182.801 84.9685C182.797 84.933 182.797 84.8973 182.801 84.8619C182.972 84.0838 183.132 83.3163 183.254 82.5329C192.682 84.217 202.088 82.81 211.106 79.8468H211.101Z" fill="#263238"/>
<path d="M213.28 99.7259C213.312 99.3421 213.344 98.9531 213.365 98.564C202.957 96.9332 192.191 98.1217 183.52 104.554L184.053 105.748C192.495 99.3315 203.069 98.207 213.28 99.7259Z" fill="#263238"/>
<path d="M233.783 81.0726L232.547 80.7156C231.168 83.8571 230.514 87.2689 230.633 90.6977L231.896 90.8842C231.754 87.5115 232.4 84.1521 233.783 81.0726Z" fill="#263238"/>
<path d="M217.47 76.4148C216.849 80.6792 216.934 85.0166 217.72 89.2535L218.972 89.3814C218.208 85.2473 218.106 81.0181 218.669 76.8518C218.274 76.6919 217.875 76.5427 217.47 76.4148Z" fill="#263238"/>
<path d="M213.552 93.3995C213.552 93.0105 213.552 92.6214 213.552 92.2324C202.238 90.7774 190.204 91.5875 180.206 97.5619C180.408 97.9669 180.611 98.3719 180.808 98.777C190.63 92.8773 202.446 92.0778 213.552 93.3995Z" fill="#263238"/>
<path d="M181.161 124.678C180.979 125.003 180.697 125.435 180.377 125.92C183.224 126.397 186.099 126.682 188.984 126.773C198.569 127.027 208.126 125.619 217.23 122.61C217.081 122.168 216.932 121.752 216.783 121.358C200.746 126.538 187.817 125.733 181.161 124.678Z" fill="#263238"/>
<path d="M219.143 129.736C219.053 129.288 218.957 128.857 218.861 128.436C205.784 132.42 191.817 132.42 178.741 128.436C178.485 128.857 178.256 129.262 178.069 129.635C184.819 131.692 191.835 132.74 198.892 132.747C205.755 132.76 212.581 131.745 219.143 129.736Z" fill="#263238"/>
<path d="M205.287 76.2976C204.221 76.1217 203.08 77.2995 201.993 76.2549C200.219 74.5442 200.895 69.8596 201.061 67.456C198.225 68.5645 195.39 69.0015 192.443 68.1648C192.741 70.6697 193.445 73.6702 193.189 76.0897C192.981 78.051 191.292 77.9444 189.826 78.2961C190.668 82.9488 192.358 86.5355 198.06 86.5941C203.064 86.6368 205.095 80.8596 205.287 76.2976Z" fill="#D9D9D9" stroke="#263238" stroke-linecap="round" stroke-linejoin="round"/>
<path d="M200.964 72.3216C200.921 71.2557 200.964 70.1898 200.964 69.1612C200.964 68.559 200.889 68.0953 200.905 67.4984C198.091 68.5643 195.352 69.0226 192.431 68.1593C192.655 69.5556 192.847 70.9466 193.018 72.3536C194.547 73.2702 196.045 73.995 197.878 73.7232C199.029 73.5527 199.988 72.9078 200.964 72.3216Z" fill="#263238" stroke="#263238" stroke-linecap="round" stroke-linejoin="round"/>
<path d="M188.259 51.6327C188.158 55.3633 187.486 60.1598 188.51 63.6453C189.533 67.1308 192.843 70.483 195.848 71.7035C198.854 72.9239 200.975 70.2379 202.985 68.218C204.994 66.1981 206.347 64.3595 206.539 60.8314C206.731 57.3032 207.179 52.8372 205.836 48.6695C204.962 45.9621 201.215 43.2921 197.218 43.4146C193.221 43.5372 188.824 46.8522 188.259 51.6327Z" fill="#D9D9D9" stroke="#263238" stroke-linecap="round" stroke-linejoin="round"/>
<path d="M194.628 62.6913C194.628 62.6913 195.529 65.2707 196.632 65.4306C197.735 65.5905 199.488 62.4994 199.488 62.4994C199.488 62.4994 196.957 63.7145 194.628 62.6913Z" fill="#263238" stroke="#263238" stroke-linecap="round" stroke-linejoin="round"/>
<path d="M195.827 59.3604C196.514 58.1666 197.724 58.5983 198.71 59.1259" stroke="#263238" stroke-linecap="round" stroke-linejoin="round"/>
<path d="M193.524 61.8171C195.996 64.1514 198.667 63.1921 201.145 61.4333" stroke="#263238" stroke-linecap="round" stroke-linejoin="round"/>
<path d="M190.678 53.9562C191.301 51.6059 192.927 51.1155 195.123 51.7178" stroke="#263238" stroke-linecap="round" stroke-linejoin="round"/>
<path d="M199.547 51.5846C201.215 50.7266 202.659 51.462 203.949 52.6079" stroke="#263238" stroke-linecap="round" stroke-linejoin="round"/>
<path d="M181.97 54.1057C181.293 56.2748 180.371 57.4153 180.339 59.9254C180.307 62.4356 183.243 65.2549 183.259 67.9463C183.275 70.6377 184.714 68.6978 181.058 72.3325C177.402 75.9671 162.805 86.285 160.353 91.412C157.902 96.5389 156.218 99.8112 162.299 100.579C168.38 101.346 175.185 89.4454 178.154 84.8407C181.122 80.2361 186.009 73.2118 187.214 68.8896C188.418 64.5674 183.878 61.9187 183.004 59.5364C182.13 57.1541 183.004 56.424 183.243 54.7399C183.483 53.0558 182.854 53.5994 181.97 54.1057Z" fill="#D9D9D9" stroke="#263238" stroke-linecap="round" stroke-linejoin="round"/>
<path d="M178.181 84.798C178.485 84.3236 179.135 83.3963 179.428 82.9167C177.573 81.515 175.9 79.9002 173.923 78.6531C170.325 81.2752 161.867 88.406 160.364 91.4438C157.881 96.4322 156.207 99.9283 162.31 100.6C168.412 101.271 175.111 89.6051 178.181 84.798Z" fill="#C48828" stroke="#263238" stroke-linecap="round" stroke-linejoin="round"/>
<path d="M169.802 82.1065L169.68 82.2078L169.413 82.4369C169.216 82.5968 169.008 82.778 168.811 82.9432C171.296 84.5228 173.698 86.2305 176.006 88.0595C176.24 87.7184 176.47 87.3774 176.699 87.0309C174.46 85.2989 172.195 83.6201 169.802 82.1065Z" fill="#263238"/>
<path d="M166.135 99.4911C166.53 99.198 166.903 98.8835 167.276 98.5584C164.299 97.6064 161.502 96.1655 158.999 94.2949C158.857 94.7212 158.729 95.1529 158.615 95.5899C160.922 97.2448 163.454 98.5587 166.135 99.4911Z" fill="#263238"/>
<path d="M163.86 87.3508L163.599 87.596L163.322 87.8678L162.906 88.2782C166.056 89.7647 168.977 91.692 171.583 94.002C171.849 93.6822 172.116 93.3518 172.377 93.0267C169.805 90.7623 166.94 88.8534 163.86 87.3508Z" fill="#263238"/>
<path d="M211.777 52.011C213.008 53.887 214.175 54.761 214.9 57.1273C215.625 59.4936 213.541 62.9897 214.287 65.5426C215.033 68.0954 213.093 66.7364 217.661 69.0653C222.228 71.3943 238.861 78.0828 242.432 82.6661C246.003 87.2495 248.092 89.9995 242.715 92.1153C237.337 94.2311 227.792 83.6787 223.827 80.1986C219.862 76.7185 213.04 71.2824 210.722 67.5358C208.403 63.7892 212.049 59.9679 212.251 57.4791C212.454 54.9902 211.42 54.4999 210.738 52.9703C210.056 51.4408 210.791 51.7606 211.777 52.011Z" fill="#D9D9D9" stroke="#263238" stroke-linecap="round" stroke-linejoin="round"/>
<path d="M223.806 80.2093L222.111 78.7224C223.523 76.8944 224.728 74.9118 226.316 73.2277C230.548 74.8266 240.236 80.0921 242.427 82.7088C246.04 87.0257 248.103 90.1115 242.704 92.1367C237.305 94.1619 227.883 83.7161 223.806 80.2093Z" fill="#C48828" stroke="#263238" stroke-linecap="round" stroke-linejoin="round"/>
<path d="M232.301 87.6492L233.271 88.4273C235.402 85.7697 237.534 83.105 239.666 80.4331L238.968 79.9801L238.813 79.8789C238.745 79.8419 238.679 79.801 238.616 79.7563C236.516 82.3944 234.416 85.0218 232.301 87.6492Z" fill="#263238"/>
<path d="M233.25 76.681L232.967 76.5317L232.2 76.1267L226.727 82.8099L227.446 83.4494L227.648 83.6306L233.319 76.7343L233.25 76.681Z" fill="#263238"/>
<path d="M244.277 85.0698C242.311 87.3295 240.323 89.5625 238.265 91.7316C238.66 91.9181 239.065 92.094 239.475 92.2645C241.335 90.2873 243.142 88.2621 244.927 86.2156C244.725 85.8159 244.506 85.4428 244.277 85.0698Z" fill="#263238"/>
<path d="M193.919 55.9175C193.951 56.4505 193.823 57.3991 193.146 57.4364C192.47 57.4737 192.24 56.5517 192.214 56.0135C192.187 55.4752 192.31 54.5372 192.987 54.4999C193.663 54.4626 193.887 55.3792 193.919 55.9175Z" fill="#263238"/>
<path d="M201.71 56.1628C201.71 56.6957 201.609 57.639 200.932 57.6763C200.255 57.7136 200.031 56.797 199.999 56.2587C199.967 55.7204 200.1 54.7824 200.777 54.7451C201.454 54.7078 201.678 55.6298 201.71 56.1628Z" fill="#263238"/>
</g>
</svg>
