<svg width="334" height="285" viewBox="0 0 334 285" fill="none" xmlns="http://www.w3.org/2000/svg">
<g opacity="0.54">
<path d="M333.287 254.897H0V255.064H333.287V254.897Z" fill="#EBEBEB"/>
<path d="M299.891 265.623H277.814V265.789H299.891V265.623Z" fill="#EBEBEB"/>
<path d="M220.782 267.436H214.99V267.602H220.782V267.436Z" fill="#EBEBEB"/>
<path d="M277.148 259.437H264.356V259.603H277.148V259.437Z" fill="#EBEBEB"/>
<path d="M63.7577 260.557H34.9684V260.723H63.7577V260.557Z" fill="#EBEBEB"/>
<path d="M73.9163 260.557H69.6969V260.723H73.9163V260.557Z" fill="#EBEBEB"/>
<path d="M150.079 263.37H87.6343V263.536H150.079V263.37Z" fill="#EBEBEB"/>
<path d="M157.978 225.168H29.2692C28.2609 225.166 27.2945 224.765 26.5822 224.051C25.8698 223.338 25.4697 222.37 25.4697 221.362V40.4342C25.4785 39.4317 25.8825 38.4731 26.5939 37.7667C27.3053 37.0603 28.2666 36.6631 29.2692 36.6614H157.978C158.987 36.6614 159.955 37.0624 160.669 37.7762C161.383 38.49 161.784 39.4581 161.784 40.4675V221.362C161.784 222.372 161.383 223.34 160.669 224.053C159.955 224.767 158.987 225.168 157.978 225.168ZM29.2692 36.7947C28.3051 36.7965 27.3811 37.1807 26.7 37.863C26.0189 38.5454 25.6364 39.4701 25.6364 40.4342V221.362C25.6364 222.326 26.0189 223.251 26.7 223.933C27.3811 224.616 28.3051 225 29.2692 225.002H157.978C158.943 225 159.867 224.616 160.549 223.934C161.232 223.252 161.616 222.327 161.617 221.362V40.4342C161.616 39.4695 161.232 38.5448 160.549 37.8626C159.867 37.1805 158.943 36.7965 157.978 36.7947H29.2692Z" fill="#EBEBEB"/>
<path d="M302.164 225.168H173.449C172.44 225.166 171.473 224.765 170.76 224.052C170.046 223.338 169.645 222.371 169.643 221.362V40.4342C169.653 39.4311 170.059 38.4725 170.771 37.7663C171.484 37.0601 172.446 36.6631 173.449 36.6614H302.164C303.166 36.6648 304.125 37.0628 304.835 37.769C305.545 38.4753 305.948 39.4328 305.957 40.4342V221.362C305.957 222.369 305.558 223.335 304.847 224.049C304.136 224.762 303.171 225.165 302.164 225.168ZM173.449 36.7947C172.484 36.7965 171.56 37.1805 170.877 37.8626C170.195 38.5448 169.811 39.4695 169.809 40.4342V221.362C169.811 222.327 170.195 223.252 170.877 223.934C171.56 224.616 172.484 225 173.449 225.002H302.164C303.129 225 304.054 224.616 304.736 223.934C305.418 223.252 305.802 222.327 305.804 221.362V40.4342C305.802 39.4695 305.418 38.5448 304.736 37.8626C304.054 37.1805 303.129 36.7965 302.164 36.7947H173.449Z" fill="#EBEBEB"/>
<path d="M50.4329 193.699H97.8929C98.9888 193.699 100.074 193.915 101.087 194.335C102.099 194.754 103.019 195.369 103.794 196.144C104.569 196.919 105.184 197.839 105.603 198.851C106.022 199.864 106.238 200.949 106.238 202.045V244.706C106.238 246.919 105.359 249.042 103.794 250.607C102.229 252.172 100.106 253.051 97.8929 253.051H50.4329V193.726V193.699Z" fill="#F0F0F0"/>
<path d="M50.8261 193.699H50.0396C45.4305 193.699 41.6941 197.436 41.6941 202.045V244.679C41.6941 249.288 45.4305 253.024 50.0396 253.024H50.8261C55.4352 253.024 59.1716 249.288 59.1716 244.679V202.045C59.1716 197.436 55.4352 193.699 50.8261 193.699Z" fill="#F5F5F5"/>
<path d="M56.7854 253.024H118.73V215.583H56.7854L56.7854 253.024Z" fill="#F0F0F0"/>
<path d="M51.6995 254.897H163.344C163.797 254.896 164.231 254.714 164.551 254.393C164.871 254.072 165.05 253.638 165.05 253.184V253.024H97.9196L49.993 253.184C49.993 253.638 50.1726 254.072 50.4924 254.393C50.8123 254.714 51.2463 254.896 51.6995 254.897Z" fill="#E0E0E0"/>
<path d="M100.599 169.089H158.231C159.722 169.061 161.201 169.352 162.571 169.941C163.941 170.53 165.169 171.404 166.174 172.506C167.179 173.607 167.937 174.91 168.399 176.328C168.86 177.746 169.014 179.246 168.85 180.728L165.05 224.055H84.1415L87.9343 180.728C88.2566 177.575 89.7235 174.649 92.0573 172.504C94.3911 170.36 97.4301 169.145 100.599 169.089Z" fill="#E0E0E0"/>
<path d="M91.4938 169.09H150.252C151.67 169.066 153.077 169.345 154.379 169.906C155.681 170.468 156.849 171.301 157.805 172.349C158.76 173.396 159.482 174.635 159.922 175.984C160.363 177.332 160.511 178.758 160.358 180.168L156.511 224.048H75.5961L79.4422 180.168C79.7483 177.167 81.1438 174.382 83.3647 172.341C85.5855 170.299 88.4777 169.142 91.4938 169.09Z" fill="#F5F5F5"/>
<path d="M61.7513 212.163H110.818C112.211 212.163 113.547 212.717 114.532 213.702C115.517 214.687 116.07 216.023 116.07 217.416V222.155C116.071 222.846 115.936 223.529 115.672 224.168C115.409 224.806 115.022 225.385 114.534 225.874C114.046 226.362 113.467 226.75 112.829 227.014C112.192 227.279 111.508 227.415 110.818 227.415H61.7513C59.7289 227.415 57.7893 226.611 56.3592 225.181C54.9291 223.751 54.1257 221.811 54.1257 219.789C54.1257 217.767 54.9291 215.827 56.3592 214.397C57.7893 212.967 59.7289 212.163 61.7513 212.163Z" fill="#E0E0E0"/>
<path d="M119.003 193.699H166.463C168.677 193.699 170.799 194.579 172.364 196.144C173.93 197.709 174.809 199.831 174.809 202.045V244.706C174.809 246.919 173.93 249.042 172.364 250.607C170.799 252.172 168.677 253.051 166.463 253.051H119.003V193.726V193.699Z" fill="#F0F0F0"/>
<path d="M119.397 193.699H118.61C114.001 193.699 110.265 197.436 110.265 202.045V244.679C110.265 249.288 114.001 253.024 118.61 253.024H119.397C124.006 253.024 127.742 249.288 127.742 244.679V202.045C127.742 197.436 124.006 193.699 119.397 193.699Z" fill="#F5F5F5"/>
<path d="M249.972 161.091H204.345V254.897H249.972V161.091Z" fill="#F0F0F0"/>
<path d="M211.17 247.592V168.396H210.117V247.592H211.17Z" fill="#E6E6E6"/>
<path d="M243.246 168.396H210.117V169.729H243.246V168.396Z" fill="#E6E6E6"/>
<path d="M296.652 161.091H251.025V254.897H296.652V161.091Z" fill="#F0F0F0"/>
<path d="M296.658 254.897H302.698V161.091H296.658V254.897Z" fill="#E0E0E0"/>
<path d="M257.85 247.592V168.396H256.797V247.592H257.85Z" fill="#E6E6E6"/>
<path d="M251.031 254.897V162.157H249.978V254.897H251.031Z" fill="#E6E6E6"/>
<path d="M289.926 168.396H256.797V169.729H289.926V168.396Z" fill="#E6E6E6"/>
<path d="M247.972 181.841H245.706V202.571H247.972V181.841Z" fill="#E0E0E0"/>
<path d="M255.291 181.841H253.024V202.571H255.291V181.841Z" fill="#E0E0E0"/>
<path d="M284.033 63.271H51.3861V146.253H284.033V63.271Z" fill="#E0E0E0"/>
<path d="M281.9 63.271H49.2531V146.253H281.9V63.271Z" fill="#F0F0F0"/>
<path d="M274.921 139.274V70.25L56.2321 70.25V139.274H274.921Z" fill="#FAFAFA"/>
<path d="M91.7338 139.274L106.225 70.25H138.214L123.723 139.274H91.7338Z" fill="white"/>
<path d="M137.221 139.274L151.712 70.25H167.71L153.212 139.274H137.221Z" fill="white"/>
<path d="M234.887 139.274L249.378 70.25H265.376L250.878 139.274H234.887Z" fill="white"/>
<path d="M166.643 285C238.022 285 295.885 281.622 295.885 277.455C295.885 273.287 238.022 269.909 166.643 269.909C95.2652 269.909 37.4016 273.287 37.4016 277.455C37.4016 281.622 95.2652 285 166.643 285Z" fill="#F5F5F5"/>
<path d="M110.652 77.0827C112.331 73.2365 97.4535 69.7503 92.9541 81.602C88.8747 92.3538 82.1023 95.1001 85.2885 102.546C88.7347 110.605 108.232 111.571 116.697 102.639C123.563 95.3934 116.111 92.3405 117.071 85.5281C118.031 78.7158 116.018 76.4961 110.652 77.0827Z" fill="#263238"/>
<path d="M83.5488 100.159C82.7756 95.96 84.3353 94.2269 86.3084 92.0339C88.9747 89.3283 90.8013 85.9091 91.5677 82.1886C91.9651 80.1568 92.981 78.2976 94.4762 76.8656C95.9714 75.4337 97.8727 74.499 99.9198 74.1897C104.319 73.3765 108.979 74.8163 110.212 76.6427C110.408 76.9 110.52 77.2119 110.532 77.5353C110.544 77.8588 110.455 78.178 110.278 78.4491L109.718 78.0892C109.826 77.928 109.879 77.7362 109.868 77.5426C109.857 77.3489 109.784 77.1641 109.658 77.016C108.565 75.3896 104.126 74.0897 100.046 74.8496C97.1335 75.3896 93.3807 77.1226 92.2209 82.3352C91.4311 86.1671 89.5489 89.6883 86.8017 92.4738C84.8819 94.6069 83.4688 96.1533 84.2087 100.033L83.5488 100.159Z" fill="#263238"/>
<path d="M74.3834 96.9665L73.9701 95.6334C73.6848 94.7275 73.1678 93.9118 72.4703 93.2671L71.1372 92.0539C70.7156 91.664 70.1709 91.4339 69.5975 91.4035C69.0241 91.373 68.4581 91.5442 67.9976 91.8873L66.5712 92.9538C66.3104 93.1486 66.091 93.3933 65.9255 93.6736C65.7601 93.9539 65.6519 94.2642 65.6072 94.5866C65.5626 94.909 65.5824 95.2371 65.6655 95.5518C65.7485 95.8665 65.8933 96.1616 66.0912 96.42L67.0111 97.6198C67.0111 97.6198 69.1708 101.273 72.297 102.539L73.0169 101.926C73.7056 101.324 74.2024 100.533 74.4453 99.6515C74.6882 98.7698 74.6667 97.8361 74.3834 96.9665Z" fill="#FFC3BD"/>
<path d="M100.293 120.11L99.8664 120.437L99.5198 120.69L98.8532 121.156C98.4066 121.45 97.9533 121.723 97.52 121.99C96.6131 122.511 95.6785 122.983 94.7204 123.403C92.7503 124.272 90.6788 124.89 88.5546 125.243C86.3117 125.619 84.0228 125.633 81.7756 125.283C80.6256 125.102 79.496 124.809 78.4027 124.409C78.1294 124.323 77.8561 124.209 77.5895 124.096L77.1896 123.929L76.9896 123.843L76.7696 123.749L76.4897 123.616C75.9079 123.318 75.3715 122.939 74.8965 122.49C74.5551 122.172 74.2408 121.826 73.9567 121.456C73.2025 120.434 72.5925 119.312 72.1436 118.124C71.7437 117.137 71.437 116.191 71.1637 115.264C70.6665 113.471 70.2638 111.653 69.9572 109.818C69.3484 106.271 69.0074 102.684 68.9374 99.0862C68.8549 98.4127 69.0323 97.7331 69.4334 97.1859C69.8346 96.6386 70.4293 96.2649 71.0964 96.1408C71.7635 96.0167 72.4528 96.1516 73.0238 96.5181C73.5949 96.8845 74.0048 97.4549 74.17 98.113V98.1864C75.3298 101.379 76.443 104.652 77.6162 107.758C78.2227 109.305 78.8093 110.845 79.4759 112.244C79.7959 112.944 80.1425 113.611 80.4691 114.191C80.6915 114.616 80.9769 115.004 81.3156 115.344C81.3156 115.344 81.3156 115.344 81.269 115.251C81.1155 115.091 80.9349 114.96 80.7357 114.864L80.6091 114.797C80.5691 114.797 80.4891 114.751 80.5358 114.764H80.6424L80.849 114.817C80.9866 114.86 81.1269 114.894 81.269 114.917C81.8317 115.03 82.4022 115.099 82.9754 115.124C84.1755 115.161 85.3751 115.035 86.5416 114.751C87.8217 114.428 89.0673 113.981 90.2611 113.418C90.881 113.138 91.4942 112.811 92.0941 112.484C92.3941 112.318 92.6874 112.138 92.9673 111.964L93.6339 111.538L94.1538 111.211C95.3251 110.467 96.7393 110.205 98.0995 110.481C99.4597 110.757 100.66 111.549 101.449 112.691C102.237 113.833 102.552 115.237 102.328 116.606C102.104 117.976 101.358 119.205 100.246 120.037L100.293 120.11Z" fill="#FFC3BD"/>
<path d="M111.985 274.548C116.204 273.155 119.757 270.302 119.044 265.296C118.731 263.15 125.616 262.31 125.616 262.31C124.836 269.129 125.69 270.309 126.509 271.849C127.329 273.388 127.283 275.275 125.843 275.441C124.136 275.648 123.756 275.442 121.637 275.741C119.157 276.068 117.551 277.361 112.598 277.361C109.925 277.361 110.652 274.988 111.985 274.548Z" fill="#D4AF37"/>
<path d="M124.816 201.712C125.303 167.557 122.15 148.939 122.15 148.939L96.8802 150.199C96.8802 150.199 100.62 181.448 107.259 204.465C109.032 216.816 113.025 237.707 115.791 251.738C119.896 251.387 123.954 250.619 127.903 249.445C128.869 237.12 129.042 219.303 124.816 201.712Z" fill="#D4AF37"/>
<path d="M125.363 265.656C125.363 265.656 126.349 259.204 127.016 249.445C123.663 250.613 120.184 251.382 116.651 251.738C118.091 260.257 119.117 265.683 119.117 265.683C121.137 266.409 123.349 266.4 125.363 265.656Z" fill="#FFC3BD"/>
<path d="M114.411 247.652C114.631 248.825 115.244 251.765 115.851 252.798C115.886 252.858 115.934 252.909 115.992 252.947C116.05 252.985 116.115 253.009 116.184 253.018C120.897 253.611 125.603 252.665 127.516 251.811C127.569 251.79 127.618 251.757 127.658 251.716C127.698 251.675 127.729 251.626 127.749 251.571C128.282 250.158 128.476 247.185 128.536 245.932C128.539 245.864 128.527 245.797 128.5 245.734C128.473 245.672 128.433 245.617 128.381 245.572C128.33 245.528 128.269 245.496 128.203 245.478C128.138 245.461 128.069 245.459 128.002 245.472C123.635 246.282 119.223 246.834 114.791 247.125C114.73 247.132 114.672 247.152 114.619 247.183C114.566 247.214 114.521 247.255 114.485 247.305C114.449 247.355 114.424 247.411 114.412 247.471C114.399 247.53 114.399 247.592 114.411 247.652Z" fill="#263238"/>
<path d="M97.2136 110.038C93.4674 110.705 87.7549 113.871 87.7549 113.871C87.7549 113.871 84.7486 121.07 88.3481 126.256C91.8943 127.096 93.6807 126.409 93.6807 126.409L97.2136 110.038Z" fill="#263238"/>
<path opacity="0.2" d="M88.348 126.256C91.8942 127.096 93.6806 126.409 93.6806 126.409L93.554 116.697C91.1476 119.937 89.1412 123.15 88.348 126.256Z" fill="black"/>
<path opacity="0.2" d="M124.683 181.561C121.857 174.649 118.817 168.956 117.651 163.757C115.651 177.895 117.224 190.9 124.83 200.219C124.916 193.34 124.843 187.114 124.683 181.561Z" fill="black"/>
<path d="M163.311 235.767L153.226 242.939C144.993 232.214 132.648 215.83 129.662 208.698C122.077 190.6 106.825 150.706 106.825 150.706L126.623 146.106C126.623 146.106 139.114 157.705 147.173 201.472C153.919 211.057 159.598 225.162 163.311 235.767Z" fill="#D4AF37"/>
<path d="M162.731 269.762C165.244 264.85 165.277 259.437 162.564 255.171C161.398 253.345 167.324 249.738 167.324 249.738C169.417 256.277 171.123 256.657 172.576 257.671C174.029 258.684 174.176 260.864 172.95 261.603C171.611 262.39 170.471 263.473 169.617 264.77C168.097 266.769 167.244 269.516 165.064 271.229C163.671 272.315 161.624 271.915 162.731 269.762Z" fill="#D4AF37"/>
<path d="M168.424 252.738C168.424 252.738 166.684 246.619 163.271 237.453C160.693 239.895 157.841 242.029 154.772 243.813C159.591 250.985 163.118 256.138 163.118 256.138C165.167 255.517 167.003 254.34 168.424 252.738Z" fill="#FFC3BD"/>
<path d="M151.046 241.013C151.713 241.986 153.499 244.419 154.479 245.106C154.536 245.146 154.602 245.173 154.671 245.185C154.74 245.196 154.811 245.192 154.879 245.172C159.411 243.773 163.311 240.966 164.737 239.386C164.777 239.344 164.808 239.294 164.826 239.238C164.845 239.183 164.851 239.124 164.844 239.067C164.751 237.567 163.698 234.774 163.238 233.607C163.212 233.545 163.174 233.49 163.124 233.445C163.075 233.4 163.016 233.367 162.952 233.348C162.888 233.329 162.821 233.324 162.755 233.334C162.689 233.345 162.626 233.37 162.571 233.407C158.934 235.945 155.15 238.267 151.239 240.36C151.18 240.386 151.127 240.425 151.084 240.473C151.041 240.522 151.01 240.579 150.991 240.642C150.973 240.704 150.968 240.769 150.978 240.833C150.987 240.897 151.01 240.959 151.046 241.013Z" fill="#263238"/>
<path d="M91.4944 119.983C92.4009 125.882 88.8881 130.455 94.294 133.175C93.3941 137.661 94.7273 146.62 96.867 150.172C99.8732 151.805 114.578 149.392 126.596 146.1C126.423 140.967 122.203 130.868 123.377 114.057C123.44 113.138 123.309 112.215 122.993 111.349C122.676 110.483 122.182 109.694 121.541 109.031C120.9 108.369 120.127 107.849 119.272 107.504C118.417 107.16 117.499 106.999 116.578 107.032C115.538 107.032 114.431 107.132 113.311 107.232C109.374 107.484 105.46 108.019 101.6 108.831C100.353 109.125 99.0666 109.458 97.8468 109.805C95.7263 110.431 93.9088 111.812 92.7382 113.688C91.5676 115.564 91.1251 117.803 91.4944 119.983Z" fill="#263238"/>
<path d="M99.9865 115.497C99.9865 115.497 103.753 114.124 105.726 117.497C109.012 115.651 113.631 107.845 113.305 107.252C107.805 108.765 99.9865 115.497 99.9865 115.497Z" fill="white"/>
<path d="M99.9865 115.497C99.9865 115.497 97.1269 115.157 96.3203 117.69C96.3203 112.691 99.6932 109.545 101.166 108.958C100.653 110.265 99.9865 115.497 99.9865 115.497Z" fill="white"/>
<path d="M111.865 94.0203C111.445 97.9197 111.378 104.186 113.311 107.258C113.311 107.258 105.979 112.278 99.9798 115.497C98.0934 111.131 101.16 108.958 101.16 108.958C104.019 107.865 103.993 104.206 103.606 101.406L111.865 94.0203Z" fill="#FFC3BD"/>
<path opacity="0.2" d="M103.619 101.406L108.285 97.2065C108.442 97.9902 108.391 98.8013 108.139 99.5595C107.33 101.744 105.777 103.574 103.753 104.725C103.826 103.617 103.781 102.505 103.619 101.406Z" fill="black"/>
<path d="M113.371 86.7746C112.705 93.1071 112.605 95.7934 109.338 98.9262C104.419 103.639 96.9335 101.479 95.7004 95.0935C94.5872 89.3409 95.807 79.9556 101.993 77.6692C108.179 75.3829 113.984 80.4488 113.371 86.7746Z" fill="#FFC3BD"/>
<path d="M111.985 91.4073C111.007 90.4717 110.436 89.1899 110.394 87.8375C110.351 86.4851 110.841 85.17 111.758 84.175C113.425 82.4886 115.758 85.9814 115.758 85.9814L111.985 91.4073Z" fill="#263238"/>
<path d="M104.259 88.5277C104.259 89.0476 103.946 89.4542 103.593 89.4409C103.239 89.4276 102.999 88.9943 103.019 88.481C103.039 87.9678 103.333 87.5545 103.686 87.5678C104.039 87.5812 104.279 87.9878 104.259 88.5277Z" fill="#263238"/>
<path d="M97.9001 88.3744C97.9001 88.8876 97.5935 89.2942 97.2335 89.2809C96.8736 89.2676 96.6403 88.841 96.6602 88.321C96.6802 87.8011 96.9669 87.4012 97.3268 87.4145C97.6868 87.4278 97.9201 87.8544 97.9001 88.3744Z" fill="#263238"/>
<path d="M97.4734 87.4479L96.2469 87.0413C96.2469 87.0413 96.8469 88.0345 97.4734 87.4479Z" fill="#263238"/>
<path d="M99.4665 88.5743C98.9514 89.7366 98.2785 90.8222 97.4668 91.8006C97.7229 91.998 98.019 92.1372 98.3344 92.2085C98.6499 92.2799 98.977 92.2817 99.2932 92.2138L99.4665 88.5743Z" fill="#ED847E"/>
<path d="M102.219 94.2403C101.93 94.2811 101.638 94.2945 101.346 94.2802C101.307 94.2785 101.269 94.2616 101.242 94.2331C101.215 94.2045 101.2 94.1665 101.2 94.1269C101.2 94.1068 101.205 94.087 101.214 94.0687C101.222 94.0505 101.234 94.0341 101.249 94.0204C101.264 94.0068 101.281 93.9963 101.3 93.9894C101.319 93.9825 101.339 93.9794 101.36 93.9803C102.001 94.0186 102.643 93.9059 103.234 93.6512C103.824 93.3965 104.347 93.007 104.759 92.5138C104.77 92.4974 104.784 92.4833 104.8 92.4724C104.816 92.4614 104.835 92.4539 104.854 92.4501C104.873 92.4464 104.893 92.4466 104.912 92.4506C104.931 92.4547 104.95 92.4626 104.966 92.4738C104.982 92.4852 104.997 92.4997 105.008 92.5166C105.019 92.5335 105.026 92.5524 105.03 92.5722C105.034 92.592 105.033 92.6123 105.029 92.6321C105.025 92.6518 105.017 92.6705 105.006 92.6871C104.315 93.5478 103.315 94.105 102.219 94.2403Z" fill="#263238"/>
<path d="M114.424 92.0805C114.177 92.6041 113.821 93.0688 113.379 93.4436C112.938 93.8183 112.421 94.0945 111.865 94.2535C110.445 94.6068 109.785 93.047 110.225 91.4873C110.618 90.0808 111.838 88.2077 113.238 88.5477C114.638 88.8876 115.111 90.714 114.424 92.0805Z" fill="#FFC3BD"/>
<path d="M110.092 77.7692C105.604 80.5687 100.566 82.3671 95.3204 83.0418C95.3204 78.4891 104.226 73.3765 110.092 77.7692Z" fill="#263238"/>
<path d="M106.652 78.3225C105.619 82.3219 115.984 89.6542 113.985 96.7066C117.371 91.434 114.931 79.569 114.931 79.569C114.931 79.569 106.199 74.0431 106.652 78.3225Z" fill="#263238"/>
<path d="M105.586 85.1282C105.545 85.1226 105.506 85.1083 105.472 85.0865C105.437 85.0646 105.408 85.0357 105.386 85.0016C105.18 84.6802 104.901 84.412 104.572 84.2185C104.243 84.0251 103.873 83.912 103.493 83.8884C103.453 83.8902 103.413 83.8839 103.376 83.87C103.339 83.8561 103.305 83.8348 103.277 83.8073C103.248 83.7799 103.225 83.747 103.209 83.7105C103.194 83.674 103.186 83.6348 103.186 83.5951C103.184 83.5546 103.191 83.5141 103.205 83.4762C103.219 83.4383 103.241 83.4036 103.269 83.3743C103.297 83.345 103.331 83.3217 103.368 83.3058C103.405 83.2899 103.445 83.2818 103.486 83.2818C103.967 83.3027 104.436 83.439 104.854 83.6791C105.272 83.9192 105.625 84.2562 105.886 84.6616C105.908 84.6943 105.924 84.7312 105.932 84.7701C105.941 84.8091 105.941 84.8492 105.934 84.8883C105.926 84.9274 105.911 84.9646 105.889 84.9978C105.867 85.031 105.839 85.0594 105.806 85.0815C105.774 85.1034 105.738 85.1188 105.7 85.1268C105.663 85.1348 105.624 85.1353 105.586 85.1282Z" fill="#263238"/>
<path d="M95.0872 84.9082C95.0094 84.9028 94.9361 84.8697 94.8806 84.8149C94.8523 84.787 94.83 84.7538 94.8147 84.7172C94.7994 84.6806 94.7915 84.6413 94.7915 84.6016C94.7915 84.5619 94.7994 84.5226 94.8147 84.486C94.83 84.4494 94.8523 84.4162 94.8806 84.3883C95.2131 84.039 95.6244 83.7744 96.0802 83.6167C96.536 83.4589 97.0229 83.4127 97.5002 83.4818C97.5784 83.4993 97.6467 83.5469 97.6903 83.6141C97.7339 83.6814 97.7494 83.7631 97.7335 83.8417C97.7256 83.8809 97.7099 83.9181 97.6875 83.9511C97.665 83.9841 97.6361 84.0124 97.6026 84.0341C97.5691 84.0558 97.5315 84.0706 97.4922 84.0777C97.4529 84.0847 97.4125 84.0838 97.3735 84.075C96.9952 84.0267 96.6107 84.0686 96.2516 84.1972C95.8925 84.3258 95.5689 84.5374 95.3072 84.8149C95.2491 84.8738 95.17 84.9074 95.0872 84.9082Z" fill="#263238"/>
<path d="M103.833 87.6012L102.606 87.2012C102.606 87.2012 103.199 88.1944 103.833 87.6012Z" fill="#263238"/>
<path opacity="0.2" d="M123.217 117.317C123.097 120.876 123.215 124.439 123.57 127.982C120.237 124.463 116.051 117.817 115.778 114.484L123.217 117.317Z" fill="black"/>
<path d="M144.98 104.799L145.707 100.566L152.286 103.106C152.286 103.106 150.759 107.045 147.953 108.785L147.173 108.292C146.562 107.92 146.045 107.41 145.665 106.804C145.284 106.198 145.05 105.511 144.98 104.799Z" fill="#FFC3BD"/>
<path d="M149.813 98.2063L151.979 99.3862C152.452 99.643 152.805 100.077 152.96 100.592C153.115 101.108 153.059 101.664 152.806 102.139L152.292 103.106L145.713 100.566L147.28 98.6929C147.582 98.3335 147.999 98.0889 148.46 98.0003C148.921 97.9117 149.399 97.9844 149.813 98.2063Z" fill="#FFC3BD"/>
<path d="M122.043 109.631L122.883 110.498L123.796 111.424C124.416 112.031 125.036 112.651 125.676 113.238C126.943 114.431 128.249 115.537 129.562 116.57C130.801 117.542 132.116 118.411 133.495 119.17C134.549 119.763 135.697 120.173 136.888 120.383L135.095 120.717C134.655 120.93 134.682 121.023 134.775 120.95C134.955 120.829 135.12 120.688 135.268 120.53C135.756 120.022 136.202 119.476 136.601 118.897C137.508 117.61 138.428 116.15 139.268 114.637C140.107 113.124 141.001 111.571 141.861 109.971L144.427 105.225V105.185C144.728 104.62 145.22 104.18 145.816 103.944C146.411 103.708 147.071 103.691 147.678 103.897C148.285 104.103 148.798 104.518 149.127 105.068C149.456 105.618 149.578 106.267 149.473 106.898C149.166 108.818 148.746 110.631 148.28 112.478C147.813 114.324 147.313 116.15 146.646 117.984C145.993 119.874 145.218 121.719 144.327 123.509C143.81 124.517 143.224 125.488 142.574 126.416C142.163 126.988 141.704 127.523 141.201 128.015C140.455 128.759 139.575 129.354 138.608 129.769C138.133 129.971 137.624 130.082 137.108 130.095H136.815C134.181 130.111 131.574 129.563 129.169 128.489C128.107 128.035 127.071 127.525 126.063 126.962C125.098 126.393 124.167 125.805 123.27 125.196C121.525 123.974 119.864 122.638 118.297 121.196C117.531 120.49 116.771 119.777 116.044 119.023C115.684 118.65 115.318 118.277 114.964 117.884C114.611 117.49 114.298 117.13 113.864 116.63C112.906 115.57 112.409 114.172 112.481 112.744C112.554 111.317 113.19 109.976 114.251 109.018C115.312 108.06 116.71 107.562 118.137 107.635C119.565 107.707 120.905 108.344 121.863 109.405L122.043 109.631Z" fill="#FFC3BD"/>
<path d="M116.871 107.065C121.757 107.212 126.616 113.064 126.616 113.064C126.616 113.064 124.736 120.83 119.384 124.176C116.371 121.83 113.818 119.95 113.818 119.95C109.558 113.704 110.978 109.558 116.871 107.065Z" fill="#263238"/>
<path d="M95.8937 149.739C96.2536 151.825 96.6869 153.465 96.8269 153.965C96.8404 154.018 96.8645 154.068 96.8977 154.112C96.9309 154.155 96.9726 154.191 97.0202 154.218C97.7334 154.612 100.986 156.218 106.959 155.865C113.625 155.505 123.403 151.865 128.476 147.993C128.55 147.935 128.603 147.856 128.627 147.765C128.651 147.675 128.645 147.579 128.609 147.493C128.217 146.624 127.76 145.786 127.243 144.986C127.192 144.91 127.118 144.851 127.031 144.82C126.945 144.789 126.851 144.786 126.763 144.813C124.576 145.48 110.812 149.419 96.3136 149.246C96.2521 149.246 96.1913 149.26 96.1355 149.285C96.0797 149.311 96.0301 149.349 95.9902 149.396C95.9503 149.443 95.921 149.498 95.9044 149.557C95.8877 149.616 95.8841 149.678 95.8937 149.739Z" fill="#D4AF37"/>
<path opacity="0.3" d="M95.8937 149.739C96.2536 151.825 96.6869 153.465 96.8269 153.965C96.8404 154.018 96.8645 154.068 96.8977 154.112C96.9309 154.155 96.9726 154.191 97.0202 154.218C97.7334 154.612 100.986 156.218 106.959 155.865C113.625 155.505 123.403 151.865 128.476 147.993C128.55 147.935 128.603 147.856 128.627 147.765C128.651 147.675 128.645 147.579 128.609 147.493C128.217 146.624 127.76 145.786 127.243 144.986C127.192 144.91 127.118 144.851 127.031 144.82C126.945 144.789 126.851 144.786 126.763 144.813C124.576 145.48 110.812 149.419 96.3136 149.246C96.2521 149.246 96.1913 149.26 96.1355 149.285C96.0797 149.311 96.0301 149.349 95.9902 149.396C95.9503 149.443 95.921 149.498 95.9044 149.557C95.8877 149.616 95.8841 149.678 95.8937 149.739Z" fill="white"/>
<path d="M229.481 257.571H141.72C140.097 257.586 138.488 257.264 136.995 256.628C135.502 255.991 134.157 255.052 133.044 253.869C131.932 252.687 131.076 251.288 130.53 249.759C129.985 248.23 129.762 246.605 129.875 244.986L140.54 62.5779C140.784 59.1921 142.288 56.0208 144.756 53.6906C147.225 51.3605 150.478 50.041 153.872 49.993H241.653C243.276 49.978 244.885 50.2991 246.378 50.936C247.871 51.573 249.216 52.512 250.329 53.694C251.441 54.8761 252.297 56.2756 252.842 57.8045C253.388 59.3334 253.611 60.9586 253.498 62.5779L242.799 244.986C242.556 248.369 241.053 251.539 238.588 253.868C236.122 256.198 232.873 257.519 229.481 257.571Z" fill="#D4AF37"/>
<path opacity="0.8" d="M229.481 257.571H141.72C140.097 257.586 138.488 257.264 136.995 256.628C135.502 255.991 134.157 255.052 133.044 253.869C131.932 252.687 131.076 251.288 130.53 249.759C129.985 248.23 129.762 246.605 129.875 244.986L140.54 62.5779C140.784 59.1921 142.288 56.0208 144.756 53.6906C147.225 51.3605 150.478 50.041 153.872 49.993H241.653C243.276 49.978 244.885 50.2991 246.378 50.936C247.871 51.573 249.216 52.512 250.329 53.694C251.441 54.8761 252.297 56.2756 252.842 57.8045C253.388 59.3334 253.611 60.9586 253.498 62.5779L242.799 244.986C242.556 248.369 241.053 251.539 238.588 253.868C236.122 256.198 232.873 257.519 229.481 257.571Z" fill="white"/>
<path d="M228.961 253.918H143.64C142.499 253.929 141.369 253.704 140.32 253.257C139.271 252.809 138.325 252.15 137.543 251.32C136.761 250.49 136.16 249.507 135.776 248.433C135.392 247.358 135.235 246.217 135.314 245.079L145.98 63.4644C146.151 61.0913 147.203 58.868 148.93 57.2313C150.656 55.5945 152.933 54.6627 155.312 54.619H240.633C241.774 54.6089 242.904 54.8348 243.953 55.2827C245.003 55.7305 245.948 56.3905 246.73 57.2212C247.512 58.0519 248.113 59.0354 248.497 60.1098C248.88 61.1842 249.038 62.3263 248.958 63.4644L238.293 245.079C238.122 247.451 237.07 249.674 235.343 251.31C233.616 252.945 231.339 253.876 228.961 253.918Z" fill="#D4AF37"/>
<path d="M228.041 252.944H142.72C141.579 252.955 140.449 252.729 139.399 252.281C138.35 251.833 137.405 251.173 136.623 250.342C135.841 249.512 135.24 248.528 134.856 247.454C134.472 246.379 134.315 245.237 134.394 244.099L145.06 62.4845C145.231 60.1115 146.283 57.8881 148.01 56.2514C149.736 54.6147 152.013 53.6829 154.392 53.6391H239.713C240.854 53.629 241.984 53.855 243.033 54.3028C244.083 54.7506 245.028 55.4107 245.81 56.2414C246.592 57.0721 247.193 58.0555 247.577 59.13C247.96 60.2044 248.118 61.3465 248.038 62.4845L237.373 244.099C237.202 246.472 236.15 248.695 234.423 250.332C232.697 251.969 230.42 252.901 228.041 252.944Z" fill="white"/>
<path opacity="0.1" d="M225.548 246.192H145.979C145.274 246.198 144.576 246.059 143.927 245.782C143.279 245.505 142.695 245.098 142.211 244.584C141.728 244.071 141.356 243.463 141.119 242.799C140.882 242.135 140.785 241.43 140.834 240.726L145.313 164.97C145.418 163.5 146.071 162.123 147.142 161.111C148.213 160.099 149.625 159.526 151.099 159.504H230.634C231.339 159.498 232.038 159.638 232.686 159.914C233.335 160.191 233.919 160.599 234.402 161.112C234.886 161.625 235.257 162.233 235.495 162.897C235.732 163.561 235.829 164.267 235.78 164.97L231.334 240.726C231.229 242.196 230.577 243.573 229.505 244.585C228.434 245.597 227.022 246.171 225.548 246.192Z" fill="#D4AF37"/>
<path opacity="0.1" d="M207.877 67.1106H184.687C184.435 67.1131 184.186 67.0633 183.954 66.9645C183.722 66.8657 183.513 66.72 183.34 66.5366C183.167 66.3532 183.034 66.1359 182.95 65.8986C182.865 65.6613 182.83 65.409 182.848 65.1575C182.884 64.6304 183.118 64.1363 183.502 63.7733C183.886 63.4103 184.392 63.2049 184.921 63.1978H208.104C208.359 63.1916 208.612 63.2387 208.848 63.3362C209.083 63.4337 209.296 63.5795 209.472 63.7641C209.647 63.9487 209.783 64.168 209.869 64.408C209.954 64.648 209.989 64.9033 209.971 65.1575C209.933 65.6875 209.697 66.1836 209.308 66.5461C208.92 66.9085 208.409 67.1102 207.877 67.1106Z" fill="#D4AF37"/>
<path opacity="0.1" d="M217.103 140.226C231.383 126.359 232.358 104.2 219.281 90.7337C206.203 77.2672 184.026 77.5921 169.746 91.4593C155.466 105.327 154.491 127.485 167.569 140.952C180.646 154.418 202.823 154.093 217.103 140.226Z" fill="#D4AF37"/>
<path d="M168.91 139.027C165.992 135.921 163.747 132.245 162.317 128.23C160.887 124.216 160.301 119.949 160.597 115.697H161.264C160.975 119.857 161.548 124.032 162.948 127.961C164.347 131.889 166.542 135.486 169.396 138.527L168.91 139.027Z" fill="#D4AF37"/>
<path d="M226.248 115.984L225.582 115.944C225.764 113.007 225.539 110.06 224.915 107.185L225.582 107.038C226.219 109.975 226.444 112.985 226.248 115.984Z" fill="#D4AF37"/>
<path d="M222.982 101.386C221.351 97.7664 219.017 94.5069 216.116 91.7962C213.216 89.0855 209.806 86.9776 206.084 85.5947L206.318 84.9681C210.124 86.3794 213.612 88.5344 216.577 91.3073C219.542 94.0802 221.926 97.4156 223.589 101.119L222.982 101.386Z" fill="#D4AF37"/>
<path d="M214.057 137.089C226.501 125.004 227.352 105.695 215.957 93.9611C204.562 82.2271 185.237 82.5115 172.792 94.5963C160.348 106.681 159.497 125.99 170.892 137.724C182.287 149.458 201.612 149.174 214.057 137.089Z" fill="#D4AF37"/>
<path d="M190.033 119.983C191.5 119.657 192.186 118.403 192.5 116.977C192.533 116.824 192.56 116.677 192.586 116.53V116.397C192.666 115.802 192.711 115.204 192.72 114.604C191.3 114.463 189.981 113.806 189.015 112.756C188.049 111.706 187.503 110.338 187.48 108.911C187.407 106.083 188.034 103.28 189.307 100.752C188.979 100.795 188.669 100.924 188.407 101.126C188.382 101.145 188.352 101.159 188.321 101.166C188.29 101.172 188.258 101.173 188.227 101.166C188.169 101.156 188.117 101.125 188.08 101.079C188.045 101.029 188.03 100.967 188.039 100.907C188.047 100.846 188.079 100.791 188.127 100.752C188.541 100.439 189.047 100.271 189.567 100.273C189.667 100.113 189.76 99.9459 189.86 99.7926C189.433 99.7926 189.02 99.7926 188.62 99.7926C189.06 96.7131 194.986 94.1268 199.025 96.4598C200.825 96.8197 203.798 99.3927 203.798 99.3927C203.858 101.032 203.811 102.673 203.658 104.305C203.391 107.092 202.732 110.364 201.125 112.191C201.525 111.257 201.672 110.234 201.552 109.225C201.167 109.605 200.689 109.879 200.165 110.018C199.975 110.426 199.752 110.819 199.499 111.191C198.872 114.051 198.425 117.857 199.379 120.05C200.239 120.103 201.072 120.183 201.865 120.27L202.058 120.303C202.582 119.996 203.085 119.655 203.565 119.283C209.564 114.617 203.198 109.138 204.698 104.119C206.198 99.0994 204.931 97.193 200.832 97.033C202.532 94.3201 191.733 89.9873 186.987 98.4062C182.688 106.038 181.301 109.851 182.848 115.817C183.429 117.767 184.746 119.414 186.52 120.41C186.823 120.327 187.13 120.265 187.44 120.223C188.287 120.143 189.167 120.05 190.033 119.983Z" fill="#263238"/>
<path d="M180.708 131.715C180.463 131.282 180.241 130.837 180.041 130.382C179.588 131.715 179.141 133.048 178.708 134.381C178.295 135.581 177.902 136.781 177.488 137.927L176.868 139.547L176.602 140.214C176.508 140.394 176.602 140.287 176.602 140.34C176.318 140.671 176.003 140.975 175.662 141.247C175.589 141.32 175.495 141.387 175.415 141.453C177.26 142.698 179.244 143.72 181.328 144.5C181.374 141.453 181.748 138.287 182.148 137.441C179.748 135.774 180.108 133.981 180.708 131.715Z" fill="#FFC3BD"/>
<path d="M183.041 122.723L182.874 122.956C182.928 122.876 182.988 122.803 183.048 122.729L183.041 122.723Z" fill="#263238"/>
<path d="M181.501 127.189C181.491 125.722 181.936 124.287 182.774 123.083C181.496 125.093 180.446 127.239 179.641 129.482C179.641 129.482 179.761 129.835 180.015 130.388C180.214 130.844 180.437 131.289 180.681 131.722C181.157 130.254 181.432 128.73 181.501 127.189Z" fill="#263238"/>
<path d="M204.738 136.861C203.948 135.7 203.246 134.481 202.638 133.215C202.438 133.321 202.232 133.428 202.018 133.521C200.019 131.408 198.312 129.702 198.312 129.702C195.819 124.503 197.359 121.543 202.085 120.336C202.818 120.487 203.518 120.77 204.151 121.17C203.528 120.731 202.812 120.444 202.058 120.33L201.865 120.296C201.072 120.21 200.239 120.13 199.379 120.076C199.565 120.563 195.286 126.742 192.6 127.722C191.5 124.949 188.414 124.762 188.414 124.762C188.414 124.762 185.534 124.169 184.641 125.982C185.227 122.236 188.834 120.263 190.033 119.983C189.167 120.056 188.287 120.15 187.44 120.256C187.13 120.298 186.823 120.36 186.521 120.443C185.149 120.819 183.932 121.622 183.048 122.736C182.988 122.809 182.928 122.883 182.874 122.963L182.774 123.089C181.936 124.294 181.491 125.728 181.501 127.195C181.44 128.733 181.174 130.255 180.708 131.722C180.108 133.961 179.748 135.781 182.101 137.447C181.701 138.294 181.328 141.447 181.281 144.506C184.594 145.734 188.1 146.358 191.633 146.346C196.157 146.339 200.626 145.359 204.738 143.473C204.623 140.992 204.643 138.507 204.798 136.028C204.778 136.294 204.751 136.587 204.738 136.861Z" fill="#263238"/>
<path d="M188.414 124.762C188.414 124.762 191.5 124.949 192.6 127.722C195.266 126.709 199.565 120.563 199.379 120.076C199.379 120.076 193.306 123.023 188.414 124.762Z" fill="white"/>
<path d="M190.047 119.983C188.847 120.27 185.241 122.243 184.654 125.982C185.547 124.169 188.427 124.762 188.427 124.762C187.494 121.256 190.047 119.983 190.047 119.983Z" fill="white"/>
<path d="M199.499 111.218C198.919 112.058 198.187 112.782 197.339 113.351C196.982 113.607 196.603 113.83 196.206 114.017C195.333 115.419 194.03 116.501 192.493 117.104V116.99C192.18 118.417 191.493 119.657 190.027 119.996C190.027 119.996 187.474 121.276 188.394 124.782C193.293 123.043 199.359 120.116 199.359 120.116C198.425 117.89 198.872 114.077 199.499 111.218Z" fill="#FFC3BD"/>
<path d="M192.513 116.97C192.546 116.817 192.573 116.67 192.6 116.524C192.573 116.65 192.546 116.817 192.513 116.97Z" fill="#263238"/>
<path opacity="0.2" d="M192.513 116.97C192.546 116.817 192.573 116.67 192.6 116.524C192.573 116.65 192.546 116.817 192.513 116.97Z" fill="black"/>
<path d="M192.753 114.597C192.744 115.197 192.7 115.796 192.62 116.39C192.703 115.796 192.747 115.197 192.753 114.597Z" fill="#263238"/>
<path opacity="0.2" d="M192.753 114.597C192.744 115.197 192.7 115.796 192.62 116.39C192.703 115.796 192.747 115.197 192.753 114.597Z" fill="black"/>
<path d="M196.206 113.984C195.132 114.498 193.937 114.706 192.753 114.584C192.747 115.184 192.703 115.783 192.62 116.377V116.51C192.62 116.657 192.566 116.804 192.533 116.957V117.07C194.056 116.461 195.343 115.379 196.206 113.984Z" fill="#FFC3BD"/>
<path opacity="0.2" d="M196.206 113.984C195.132 114.498 193.937 114.706 192.753 114.584C192.747 115.184 192.703 115.783 192.62 116.377V116.51C192.62 116.657 192.566 116.804 192.533 116.957V117.07C194.056 116.461 195.343 115.379 196.206 113.984Z" fill="black"/>
<path d="M196.206 113.984C196.603 113.797 196.982 113.574 197.339 113.317C198.187 112.749 198.919 112.025 199.499 111.184C199.752 110.812 199.975 110.42 200.165 110.011C200.039 110.011 199.912 110.078 199.792 110.091C198.679 110.191 198.365 108.938 198.872 107.818C199.044 107.44 199.268 107.087 199.539 106.772C199.248 105.82 199.319 104.794 199.739 103.892C198.725 101.812 197.652 99.8926 197.552 98.4995C195.058 99.2705 192.47 99.6944 189.86 99.7593C189.76 99.9126 189.667 100.079 189.567 100.239C189.793 100.238 190.018 100.272 190.233 100.339C190.261 100.35 190.287 100.365 190.309 100.386C190.331 100.406 190.349 100.431 190.361 100.458C190.374 100.485 190.38 100.515 190.381 100.545C190.382 100.575 190.377 100.605 190.367 100.633C190.346 100.689 190.303 100.736 190.248 100.762C190.194 100.788 190.131 100.792 190.073 100.773C189.834 100.7 189.581 100.682 189.333 100.719C188.078 103.249 187.467 106.049 187.554 108.871C187.576 110.298 188.123 111.666 189.089 112.716C190.055 113.766 191.373 114.423 192.793 114.564C193.962 114.685 195.142 114.484 196.206 113.984ZM194.719 100.893C195.082 100.964 195.423 101.123 195.711 101.355C195.999 101.587 196.226 101.886 196.372 102.226C196.398 102.282 196.402 102.345 196.382 102.404C196.362 102.462 196.32 102.51 196.266 102.539C196.21 102.562 196.148 102.562 196.092 102.539C196.062 102.531 196.035 102.516 196.012 102.495C195.988 102.474 195.97 102.448 195.959 102.419C195.838 102.15 195.653 101.914 195.421 101.732C195.189 101.549 194.916 101.426 194.626 101.372C194.566 101.363 194.512 101.33 194.475 101.282C194.438 101.234 194.42 101.173 194.426 101.112C194.429 101.078 194.439 101.045 194.456 101.015C194.473 100.986 194.496 100.96 194.524 100.94C194.552 100.921 194.584 100.907 194.618 100.901C194.652 100.895 194.686 100.897 194.719 100.906V100.893ZM194.486 104.185C194.597 104.269 194.68 104.385 194.721 104.518C194.763 104.651 194.763 104.793 194.719 104.925C194.646 105.312 194.379 105.592 194.126 105.532C193.873 105.472 193.726 105.132 193.799 104.745C193.836 104.549 193.937 104.371 194.086 104.239C193.878 104.129 193.716 103.949 193.626 103.732L194.486 104.185ZM189.02 103.905C189.056 103.713 189.154 103.537 189.3 103.405C189.096 103.29 188.936 103.109 188.847 102.892L189.72 103.339C189.828 103.425 189.907 103.542 189.949 103.673C189.99 103.805 189.992 103.946 189.953 104.079C189.873 104.465 189.613 104.745 189.36 104.692C189.107 104.639 188.947 104.305 189.02 103.919V103.905ZM190.567 107.145C190.319 107.16 190.072 107.12 189.842 107.029C189.611 106.938 189.404 106.798 189.233 106.618C189.947 105.972 190.57 105.232 191.087 104.419L190.567 107.145ZM191.853 108.931C191.823 108.923 191.798 108.905 191.782 108.879C191.766 108.853 191.76 108.821 191.766 108.791C191.773 108.762 191.79 108.737 191.815 108.721C191.84 108.705 191.871 108.699 191.9 108.705C192.381 108.808 192.88 108.797 193.356 108.672C193.832 108.547 194.271 108.312 194.639 107.985C194.65 107.974 194.662 107.965 194.676 107.959C194.69 107.953 194.705 107.95 194.72 107.949C194.735 107.949 194.751 107.952 194.765 107.957C194.779 107.963 194.792 107.971 194.803 107.982C194.814 107.992 194.822 108.005 194.828 108.018C194.835 108.032 194.838 108.047 194.838 108.062C194.838 108.078 194.836 108.093 194.83 108.107C194.825 108.121 194.816 108.134 194.806 108.145C194.186 108.715 193.368 109.021 192.526 108.998C192.301 108.996 192.076 108.978 191.853 108.945V108.931Z" fill="#FFC3BD"/>
<path d="M200.638 105.985C200.359 105.319 200.039 104.605 199.712 103.939C199.292 104.841 199.221 105.867 199.512 106.818C199.808 106.446 200.196 106.159 200.638 105.985Z" fill="#263238"/>
<path d="M194.073 104.259C193.924 104.391 193.823 104.569 193.786 104.765C193.713 105.152 193.859 105.505 194.113 105.552C194.366 105.599 194.633 105.332 194.706 104.945C194.749 104.813 194.75 104.671 194.708 104.538C194.666 104.405 194.584 104.289 194.473 104.205C194.416 104.248 194.35 104.276 194.28 104.285C194.21 104.295 194.138 104.285 194.073 104.259Z" fill="#263238"/>
<path d="M189.973 104.099C190.012 103.966 190.01 103.825 189.969 103.693C189.927 103.562 189.848 103.445 189.74 103.359C189.682 103.401 189.615 103.429 189.544 103.439C189.473 103.45 189.401 103.443 189.333 103.419C189.188 103.55 189.089 103.726 189.053 103.919C188.98 104.305 189.127 104.659 189.38 104.712C189.633 104.765 189.86 104.485 189.973 104.099Z" fill="#263238"/>
<path d="M189.707 103.359L188.833 102.912C188.923 103.129 189.082 103.31 189.287 103.425C189.357 103.451 189.432 103.458 189.505 103.446C189.579 103.435 189.648 103.405 189.707 103.359Z" fill="#263238"/>
<path d="M189.24 106.652C189.411 106.831 189.618 106.971 189.848 107.062C190.079 107.153 190.326 107.193 190.573 107.178L191.1 104.452C190.582 105.266 189.956 106.006 189.24 106.652Z" fill="#ED847E"/>
<path d="M194.793 107.985C194.77 107.963 194.74 107.951 194.709 107.951C194.678 107.951 194.648 107.963 194.626 107.985C194.259 108.31 193.822 108.544 193.348 108.669C192.875 108.794 192.379 108.806 191.9 108.705C191.871 108.699 191.84 108.705 191.815 108.721C191.79 108.737 191.773 108.762 191.766 108.791C191.76 108.821 191.766 108.853 191.782 108.879C191.798 108.905 191.823 108.923 191.853 108.931C192.073 108.969 192.296 108.991 192.52 108.998C193.362 109.021 194.18 108.715 194.799 108.145C194.818 108.122 194.828 108.093 194.827 108.064C194.825 108.034 194.813 108.006 194.793 107.985Z" fill="#263238"/>
<path d="M200.639 105.985C200.196 106.159 199.808 106.446 199.512 106.818C199.241 107.134 199.017 107.486 198.845 107.865C198.339 108.985 198.652 110.238 199.765 110.138C199.885 110.138 200.012 110.085 200.139 110.058C200.662 109.919 201.14 109.645 201.525 109.265C201.386 108.135 201.087 107.031 200.639 105.985Z" fill="#FFC3BD"/>
<path d="M197.679 97.533C197.719 96.5731 198.266 96.3398 199.012 96.4864C194.973 94.1268 189.047 96.7131 188.607 99.8193C189.007 99.8193 189.42 99.8193 189.847 99.8193C192.456 99.7544 195.045 99.3304 197.539 98.5595C197.5 98.211 197.548 97.8584 197.679 97.533Z" fill="#263238"/>
<path d="M197.679 97.533C197.553 97.8502 197.505 98.1932 197.539 98.5329C197.639 99.946 198.712 101.866 199.725 103.925C200.052 104.592 200.392 105.259 200.652 105.972C201.1 107.018 201.399 108.122 201.538 109.251C201.659 110.26 201.511 111.283 201.112 112.218C202.718 110.391 203.378 107.118 203.645 104.332C203.798 102.699 203.844 101.058 203.785 99.4194C203.785 99.4194 200.812 96.8464 199.012 96.4865C198.266 96.3398 197.719 96.5731 197.679 97.533Z" fill="#263238"/>
<path d="M194.639 101.366C194.93 101.419 195.202 101.543 195.435 101.725C195.667 101.907 195.851 102.143 195.972 102.412C195.984 102.441 196.002 102.467 196.025 102.488C196.048 102.509 196.076 102.524 196.106 102.532C196.161 102.555 196.224 102.555 196.279 102.532C196.334 102.504 196.375 102.455 196.395 102.397C196.415 102.339 196.412 102.275 196.386 102.219C196.239 101.879 196.012 101.58 195.724 101.348C195.436 101.116 195.096 100.957 194.733 100.886C194.672 100.878 194.61 100.895 194.562 100.932C194.513 100.97 194.481 101.025 194.473 101.086C194.46 101.145 194.47 101.206 194.501 101.258C194.532 101.31 194.581 101.349 194.639 101.366Z" fill="#263238"/>
<path d="M190.033 100.806C190.091 100.825 190.154 100.821 190.208 100.795C190.263 100.769 190.305 100.723 190.327 100.666C190.337 100.638 190.342 100.608 190.341 100.578C190.34 100.548 190.333 100.519 190.321 100.491C190.309 100.464 190.291 100.44 190.269 100.419C190.247 100.399 190.221 100.383 190.193 100.373C189.977 100.305 189.753 100.272 189.527 100.273C189.007 100.271 188.501 100.439 188.087 100.753C188.039 100.791 188.007 100.846 187.999 100.907C187.99 100.967 188.005 101.029 188.04 101.079C188.077 101.125 188.129 101.156 188.187 101.166C188.218 101.173 188.25 101.172 188.281 101.166C188.312 101.159 188.342 101.145 188.367 101.126C188.629 100.924 188.939 100.795 189.267 100.753C189.523 100.711 189.785 100.729 190.033 100.806Z" fill="#263238"/>
<path d="M194.073 104.259C194.138 104.285 194.21 104.295 194.28 104.285C194.35 104.276 194.416 104.248 194.473 104.205L193.599 103.759C193.694 103.976 193.861 104.153 194.073 104.259Z" fill="#263238"/>
<path d="M204.738 136.861C204.738 136.587 204.778 136.294 204.791 136.014C204.418 135.421 204.038 134.821 203.645 134.228L202.878 133.088L202.638 133.215C203.246 134.481 203.948 135.7 204.738 136.861Z" fill="#263238"/>
<path opacity="0.2" d="M204.738 136.861C204.738 136.587 204.778 136.294 204.791 136.014C204.418 135.421 204.038 134.821 203.645 134.228L202.878 133.088L202.638 133.215C203.246 134.481 203.948 135.7 204.738 136.861Z" fill="black"/>
<path d="M206.718 142.38V142.487C209.376 141.05 211.825 139.256 213.997 137.154C213.633 136.079 213.205 135.026 212.717 134.001C212.07 132.607 211.351 131.248 210.564 129.928C209.897 128.782 209.191 127.689 208.464 126.596C207.797 127.989 205.904 131.342 202.898 133.068L203.665 134.208C204.058 134.801 204.438 135.401 204.811 135.994C205.138 136.514 205.478 137.041 205.751 137.561C206.264 138.461 206.744 139.367 207.084 140.227L207.018 140.68C206.938 141.234 206.838 141.8 206.718 142.38Z" fill="#FFC3BD"/>
<path d="M198.312 129.702C198.312 129.702 200.019 131.408 202.018 133.521C202.232 133.428 202.438 133.321 202.638 133.215L202.878 133.088C205.884 131.362 207.764 128.009 208.444 126.616C208.637 126.222 208.737 125.982 208.737 125.982C208.737 125.982 206.804 122.783 204.151 121.17C203.518 120.77 202.818 120.487 202.085 120.336C197.359 121.543 195.819 124.503 198.312 129.702Z" fill="#263238"/>
<path d="M230.274 62.8379H239.666C239.923 62.8335 240.169 62.7333 240.355 62.5568C240.541 62.3804 240.655 62.1406 240.673 61.8847C240.681 61.7628 240.664 61.6404 240.623 61.5254C240.582 61.4104 240.517 61.3051 240.433 61.2162C240.349 61.1273 240.248 61.0567 240.135 61.0089C240.023 60.961 239.902 60.937 239.78 60.9382H230.381C230.126 60.9424 229.881 61.0417 229.695 61.2167C229.509 61.3918 229.394 61.6299 229.374 61.8847C229.365 62.0077 229.382 62.1313 229.423 62.2476C229.464 62.3639 229.529 62.4704 229.614 62.5601C229.699 62.6498 229.801 62.7208 229.915 62.7687C230.029 62.8165 230.151 62.8401 230.274 62.8379Z" fill="#D4AF37"/>
<path d="M230.081 66.1107H239.473C239.73 66.1064 239.975 66.0061 240.161 65.8297C240.348 65.6533 240.461 65.4135 240.48 65.1575C240.489 65.0351 240.472 64.912 240.432 64.7962C240.391 64.6803 240.326 64.5743 240.242 64.4846C240.158 64.395 240.057 64.3238 239.944 64.2756C239.831 64.2273 239.709 64.2031 239.586 64.2043H230.194C229.937 64.207 229.689 64.3065 229.502 64.4831C229.314 64.6597 229.2 64.9005 229.181 65.1575C229.174 65.2801 229.192 65.4029 229.234 65.5183C229.276 65.6337 229.341 65.7393 229.425 65.8286C229.509 65.9179 229.611 65.989 229.724 66.0375C229.837 66.086 229.958 66.1109 230.081 66.1107Z" fill="#D4AF37"/>
<path d="M154.098 66.1107H163.49C163.748 66.1065 163.994 66.0065 164.181 65.8302C164.369 65.6539 164.484 65.414 164.504 65.1575C164.512 65.0347 164.495 64.9115 164.453 64.7957C164.411 64.6798 164.346 64.5738 164.262 64.4843C164.177 64.3948 164.075 64.3238 163.962 64.2756C163.849 64.2274 163.727 64.2031 163.604 64.2043H154.212C153.955 64.2071 153.708 64.3069 153.522 64.4836C153.335 64.6604 153.222 64.901 153.205 65.1575C153.197 65.2798 153.214 65.4024 153.255 65.5178C153.296 65.6332 153.361 65.7389 153.445 65.8283C153.528 65.9177 153.63 65.9889 153.742 66.0375C153.855 66.0861 153.976 66.111 154.098 66.1107Z" fill="#D4AF37"/>
<path d="M229.888 69.3769H239.3C239.557 69.3742 239.805 69.2747 239.992 69.0981C240.18 68.9215 240.295 68.6808 240.313 68.4237C240.32 68.3011 240.302 68.1784 240.26 68.063C240.218 67.9475 240.153 67.8419 240.069 67.7527C239.985 67.6634 239.883 67.5923 239.77 67.5437C239.657 67.4952 239.536 67.4703 239.413 67.4705H230.001C229.744 67.4747 229.497 67.5748 229.31 67.7511C229.123 67.9273 229.008 68.1672 228.988 68.4237C228.98 68.5465 228.997 68.6697 229.038 68.7856C229.08 68.9014 229.145 69.0074 229.23 69.0969C229.314 69.1864 229.416 69.2575 229.529 69.3057C229.643 69.3539 229.765 69.3781 229.888 69.3769Z" fill="#D4AF37"/>
<path d="M217.543 188.967H160.724C159.663 188.977 158.611 188.767 157.635 188.351C156.659 187.935 155.78 187.321 155.052 186.548C154.325 185.776 153.765 184.861 153.408 183.862C153.051 182.862 152.905 181.8 152.978 180.741C153.138 178.529 154.122 176.457 155.735 174.934C157.348 173.411 159.473 172.548 161.691 172.516H218.509C219.57 172.506 220.622 172.716 221.598 173.132C222.574 173.548 223.454 174.162 224.181 174.934C224.909 175.707 225.469 176.622 225.825 177.621C226.182 178.62 226.328 179.683 226.255 180.741C226.095 182.954 225.112 185.026 223.499 186.549C221.886 188.071 219.761 188.934 217.543 188.967Z" fill="white"/>
<path d="M216.25 211.077H159.424C158.363 211.085 157.312 210.874 156.336 210.456C155.36 210.039 154.481 209.425 153.754 208.652C153.027 207.879 152.467 206.964 152.11 205.965C151.753 204.966 151.606 203.904 151.679 202.845C151.843 200.636 152.829 198.569 154.441 197.05C156.054 195.532 158.176 194.672 160.391 194.639H217.216C218.277 194.629 219.329 194.839 220.305 195.255C221.281 195.672 222.161 196.285 222.888 197.058C223.616 197.83 224.175 198.745 224.532 199.745C224.889 200.744 225.035 201.806 224.962 202.865C224.797 205.074 223.812 207.142 222.2 208.662C220.587 210.182 218.465 211.043 216.25 211.077Z" fill="white"/>
<path d="M214.95 233.181H158.131C157.07 233.191 156.018 232.981 155.042 232.565C154.066 232.148 153.187 231.535 152.459 230.762C151.732 229.99 151.172 229.075 150.815 228.075C150.458 227.076 150.312 226.014 150.385 224.955C150.545 222.742 151.528 220.669 153.141 219.145C154.754 217.621 156.879 216.757 159.098 216.723H215.916C216.978 216.714 218.03 216.925 219.006 217.341C219.982 217.758 220.861 218.373 221.589 219.146C222.316 219.919 222.876 220.834 223.232 221.834C223.589 222.834 223.735 223.896 223.662 224.955C223.502 227.168 222.519 229.24 220.906 230.762C219.293 232.285 217.168 233.148 214.95 233.181Z" fill="white"/>
<path d="M165.138 183.689C166.868 182.009 166.988 179.327 165.405 177.697C163.823 176.068 161.138 176.108 159.408 177.788C157.678 179.468 157.558 182.151 159.141 183.78C160.723 185.41 163.408 185.369 165.138 183.689Z" fill="#D4AF37"/>
<path d="M161.771 198.839L162.331 200.952C162.363 201.068 162.433 201.17 162.529 201.242C162.626 201.315 162.743 201.353 162.864 201.352H165.083C165.209 201.353 165.33 201.395 165.429 201.472C165.528 201.548 165.599 201.655 165.632 201.776C165.664 201.897 165.656 202.025 165.609 202.141C165.562 202.257 165.478 202.354 165.37 202.418L163.497 203.751C163.391 203.822 163.309 203.925 163.264 204.044C163.218 204.164 163.211 204.294 163.244 204.418L163.804 206.531C163.837 206.652 163.832 206.781 163.79 206.899C163.747 207.018 163.67 207.12 163.567 207.193C163.464 207.266 163.342 207.305 163.216 207.306C163.09 207.307 162.967 207.269 162.864 207.198L161.144 205.864C161.046 205.796 160.93 205.759 160.811 205.759C160.691 205.759 160.575 205.796 160.477 205.864L158.604 207.198C158.506 207.276 158.385 207.319 158.259 207.319C158.134 207.32 158.012 207.279 157.913 207.202C157.814 207.125 157.743 207.017 157.713 206.896C157.682 206.774 157.693 206.646 157.745 206.531L158.551 204.418C158.601 204.303 158.61 204.176 158.579 204.055C158.548 203.934 158.477 203.827 158.378 203.751L156.658 202.418C156.563 202.337 156.496 202.228 156.465 202.107C156.435 201.986 156.442 201.859 156.487 201.742C156.531 201.625 156.61 201.525 156.714 201.456C156.817 201.386 156.94 201.349 157.065 201.352H159.284C159.41 201.352 159.533 201.314 159.637 201.242C159.74 201.171 159.82 201.069 159.864 200.952L160.644 198.839C160.68 198.717 160.754 198.61 160.855 198.533C160.957 198.457 161.08 198.416 161.207 198.416C161.334 198.416 161.458 198.457 161.56 198.533C161.661 198.61 161.735 198.717 161.771 198.839Z" fill="#D4AF37"/>
<path d="M163.31 222.715L162.957 228.648C162.94 228.897 162.83 229.13 162.648 229.301C162.466 229.471 162.227 229.567 161.977 229.568H156.785C156.67 229.561 156.558 229.531 156.454 229.481C156.351 229.43 156.259 229.359 156.184 229.272C156.109 229.185 156.052 229.083 156.017 228.974C155.981 228.865 155.968 228.749 155.978 228.635L156.411 221.249C156.427 221 156.535 220.766 156.716 220.594C156.896 220.423 157.135 220.325 157.385 220.322H161.117L163.31 222.715Z" fill="#D4AF37"/>
<path d="M161.084 220.336L163.33 222.715H161.871C161.752 222.717 161.634 222.693 161.525 222.647C161.416 222.6 161.317 222.532 161.236 222.445C161.155 222.359 161.092 222.256 161.052 222.145C161.012 222.033 160.996 221.914 161.004 221.796L161.084 220.336ZM160.491 218.703L160.397 220.296L160.311 221.756C160.299 221.968 160.331 222.181 160.403 222.381C160.475 222.582 160.586 222.766 160.731 222.922C160.877 223.077 161.054 223.2 161.25 223.283C161.446 223.367 161.657 223.41 161.871 223.409H164.923L163.83 222.242L161.591 219.862L160.491 218.703Z" fill="white"/>
<path opacity="0.2" d="M215.636 179.868H173.116C172.944 179.869 172.773 179.835 172.615 179.768C172.456 179.7 172.314 179.601 172.196 179.476C172.077 179.351 171.986 179.203 171.928 179.041C171.869 178.879 171.845 178.707 171.856 178.535C171.884 178.176 172.045 177.84 172.308 177.594C172.57 177.347 172.915 177.207 173.276 177.202H215.79C215.962 177.201 216.132 177.235 216.291 177.302C216.449 177.37 216.591 177.469 216.71 177.594C216.828 177.719 216.919 177.867 216.978 178.029C217.036 178.191 217.06 178.363 217.049 178.535C217.023 178.893 216.863 179.229 216.602 179.476C216.34 179.722 215.996 179.862 215.636 179.868Z" fill="#D4AF37"/>
<path opacity="0.2" d="M207.578 184.294H172.862C172.69 184.295 172.519 184.261 172.361 184.194C172.202 184.126 172.059 184.027 171.94 183.902C171.821 183.777 171.73 183.629 171.67 183.467C171.611 183.305 171.586 183.133 171.596 182.961C171.624 182.602 171.785 182.266 172.048 182.02C172.31 181.773 172.656 181.633 173.016 181.628H207.731C207.903 181.626 208.075 181.659 208.234 181.726C208.393 181.793 208.536 181.893 208.655 182.018C208.774 182.143 208.866 182.291 208.925 182.454C208.984 182.616 209.008 182.789 208.997 182.961C208.968 183.32 208.806 183.654 208.544 183.901C208.282 184.147 207.937 184.287 207.578 184.294Z" fill="#D4AF37"/>
<path opacity="0.2" d="M214.237 203.718H202.505C202.144 203.722 201.798 203.861 201.535 204.108C201.272 204.355 201.112 204.692 201.085 205.051C201.074 205.223 201.099 205.395 201.157 205.557C201.216 205.719 201.307 205.867 201.425 205.992C201.543 206.117 201.686 206.216 201.844 206.284C202.002 206.351 202.173 206.386 202.345 206.384H214.077C214.437 206.38 214.783 206.241 215.046 205.994C215.309 205.747 215.47 205.411 215.496 205.051C215.507 204.879 215.483 204.707 215.424 204.545C215.366 204.384 215.275 204.236 215.157 204.11C215.038 203.985 214.896 203.886 214.737 203.818C214.579 203.751 214.409 203.717 214.237 203.718Z" fill="#D4AF37"/>
<path opacity="0.2" d="M195.646 203.718H171.723C171.362 203.722 171.016 203.861 170.753 204.108C170.49 204.355 170.33 204.692 170.303 205.051C170.291 205.223 170.315 205.396 170.373 205.558C170.431 205.72 170.522 205.869 170.64 205.994C170.759 206.119 170.902 206.219 171.061 206.286C171.219 206.353 171.39 206.387 171.563 206.384H195.493C195.853 206.379 196.198 206.239 196.461 205.993C196.723 205.746 196.884 205.41 196.912 205.051C196.923 204.879 196.899 204.706 196.84 204.544C196.781 204.382 196.689 204.233 196.57 204.108C196.451 203.983 196.308 203.884 196.149 203.816C195.99 203.749 195.819 203.716 195.646 203.718Z" fill="#D4AF37"/>
<path opacity="0.2" d="M206.698 199.305H171.976C171.615 199.309 171.269 199.449 171.006 199.695C170.743 199.942 170.583 200.279 170.556 200.639C170.545 200.81 170.57 200.982 170.628 201.144C170.686 201.306 170.778 201.454 170.896 201.579C171.014 201.704 171.157 201.804 171.315 201.871C171.473 201.939 171.644 201.973 171.816 201.972H206.531C206.891 201.966 207.236 201.826 207.499 201.58C207.761 201.333 207.923 200.998 207.951 200.639C207.962 200.467 207.937 200.296 207.879 200.134C207.821 199.973 207.731 199.825 207.613 199.7C207.496 199.575 207.354 199.476 207.196 199.408C207.039 199.34 206.869 199.305 206.698 199.305Z" fill="#D4AF37"/>
<path opacity="0.2" d="M212.937 225.822H170.423C170.063 225.829 169.719 225.969 169.456 226.215C169.194 226.461 169.033 226.796 169.003 227.155C168.992 227.327 169.017 227.5 169.075 227.662C169.134 227.824 169.226 227.973 169.345 228.098C169.464 228.223 169.607 228.322 169.766 228.39C169.926 228.457 170.097 228.49 170.269 228.488H212.783C213.143 228.482 213.487 228.342 213.749 228.096C214.01 227.849 214.17 227.513 214.197 227.155C214.208 226.983 214.183 226.811 214.125 226.649C214.066 226.487 213.975 226.339 213.857 226.214C213.739 226.089 213.596 225.99 213.438 225.922C213.279 225.855 213.109 225.82 212.937 225.822Z" fill="#D4AF37"/>
<path opacity="0.2" d="M205.398 221.402H170.683C170.323 221.408 169.977 221.548 169.715 221.794C169.452 222.041 169.291 222.376 169.263 222.735C169.252 222.907 169.276 223.079 169.335 223.241C169.393 223.403 169.485 223.551 169.603 223.676C169.721 223.801 169.864 223.901 170.022 223.968C170.18 224.036 170.351 224.07 170.523 224.069H205.245C205.604 224.063 205.948 223.923 206.21 223.676C206.471 223.43 206.631 223.094 206.658 222.735C206.669 222.564 206.644 222.392 206.586 222.23C206.527 222.068 206.436 221.92 206.318 221.795C206.2 221.67 206.057 221.57 205.899 221.503C205.74 221.435 205.57 221.401 205.398 221.402Z" fill="#D4AF37"/>
</g>
</svg>
